<?xml version="1.0" encoding="UTF-8" ?>
<!DOCTYPE svg PUBLIC "-//W3C//DTD SVG 1.1//EN" "http://www.w3.org/Graphics/SVG/1.1/DTD/svg11.dtd">
<svg width="109pt" height="62pt" viewBox="0 0 109 62" version="1.1" xmlns="http://www.w3.org/2000/svg">
<g id="#cba35dff">
<path fill="#cba35d" opacity="1.00" d=" M 8.75 0.00 L 99.48 0.00 C 104.24 0.28 108.25 4.02 109.00 8.71 L 109.00 53.08 C 108.42 57.62 104.77 61.25 100.28 62.00 L 8.97 62.00 C 4.20 61.41 0.30 57.40 0.00 52.59 L 0.00 8.93 C 0.57 4.37 4.27 0.76 8.75 0.00 M 7.44 5.72 C 5.61 6.75 4.86 8.91 5.00 10.93 C 5.03 24.65 4.93 38.37 5.05 52.08 C 4.93 55.16 8.03 57.40 10.94 57.00 C 39.96 57.00 68.98 57.00 98.00 57.00 C 100.90 57.41 104.03 55.24 103.94 52.15 C 104.08 38.42 103.97 24.68 104.00 10.95 C 104.40 8.03 102.17 4.94 99.08 5.05 C 70.05 4.92 41.01 5.06 11.98 4.98 C 10.46 5.07 8.79 4.86 7.44 5.72 Z" />
<path fill="#cba35d" opacity="1.00" d=" M 31.50 13.64 C 35.66 11.76 41.20 14.19 41.80 18.91 C 42.29 25.27 41.99 31.67 42.01 38.05 C 42.21 41.72 40.05 45.93 36.04 46.30 C 32.14 47.18 27.91 44.57 27.48 40.49 C 26.89 34.32 27.41 28.09 27.21 21.89 C 26.99 18.64 28.21 14.89 31.50 13.64 M 33.12 18.00 C 32.88 18.30 32.41 18.89 32.17 19.18 C 31.84 25.82 32.01 32.50 32.06 39.15 C 31.73 42.10 36.66 43.08 37.03 39.94 C 37.32 33.28 37.14 26.59 37.12 19.92 C 37.28 17.88 34.63 17.08 33.12 18.00 Z" />
<path fill="#cba35d" opacity="1.00" d=" M 46.89 16.11 C 49.10 11.85 56.51 12.11 58.23 16.69 C 59.53 20.56 59.61 25.37 56.76 28.60 C 60.11 32.37 60.19 38.09 58.56 42.62 C 56.67 47.59 48.54 47.71 46.42 42.90 C 44.46 38.34 44.79 32.74 47.84 28.73 C 45.59 24.97 44.93 20.13 46.89 16.11 M 51.15 17.18 C 50.02 18.53 50.16 20.42 50.12 22.06 C 50.14 23.92 50.36 26.95 53.01 26.37 C 55.41 25.00 54.63 21.61 54.55 19.31 C 54.57 17.47 52.84 16.21 51.15 17.18 M 50.82 31.81 C 49.37 34.24 49.75 37.31 50.22 39.97 C 50.43 41.96 52.85 42.46 54.26 41.31 C 55.48 38.17 55.01 34.72 54.24 31.54 C 53.11 31.58 51.85 31.18 50.82 31.81 Z" />
<path fill="#cba35d" opacity="1.00" d=" M 67.42 13.54 C 70.64 12.37 74.82 13.24 76.54 16.42 C 78.36 20.00 77.49 24.17 77.69 28.02 C 77.46 32.64 78.28 37.41 77.00 41.91 C 75.14 48.09 64.77 47.85 63.35 41.49 C 62.28 35.05 63.11 28.45 62.84 21.94 C 62.60 18.59 63.92 14.64 67.42 13.54 M 68.26 18.32 C 67.01 23.74 68.03 29.51 67.68 35.06 C 68.00 37.25 66.81 40.65 69.41 41.73 C 71.07 42.68 73.00 40.76 72.82 39.04 C 72.94 32.71 72.93 26.38 72.82 20.05 C 72.86 17.74 69.83 16.93 68.26 18.32 Z" />
<path fill="#cba35d" opacity="1.00" d=" M 13.31 17.82 C 15.44 16.85 17.38 15.51 19.01 13.82 C 19.78 13.81 21.31 13.77 22.07 13.76 C 22.06 24.41 22.08 35.06 22.06 45.71 C 20.44 45.71 18.82 45.72 17.19 45.72 C 17.30 37.42 17.13 29.12 17.24 20.81 C 15.90 20.83 14.56 20.84 13.22 20.85 C 13.25 19.84 13.28 18.83 13.31 17.82 Z" />
<path fill="#cba35d" opacity="1.00" d=" M 81.71 22.05 C 84.13 22.04 86.58 23.11 88.95 22.19 C 91.13 21.19 93.86 22.58 94.14 25.00 C 94.69 29.29 94.25 33.64 94.41 37.96 C 94.35 40.61 94.66 44.15 91.95 45.66 C 89.98 46.30 87.95 45.50 86.11 44.83 C 86.15 47.60 86.14 50.38 86.14 53.15 C 84.66 53.15 83.19 53.15 81.71 53.15 C 81.71 42.78 81.72 32.42 81.71 22.05 M 87.09 26.05 L 86.41 26.53 C 86.00 29.99 86.33 33.50 86.20 36.98 C 86.28 38.65 85.90 40.52 86.89 42.01 C 88.47 42.54 89.75 41.50 89.75 39.89 C 89.89 35.94 89.83 31.99 89.77 28.04 C 90.17 26.31 88.60 25.44 87.09 26.05 Z" />
</g>
</svg>
