<?xml version="1.0" encoding="UTF-8" ?>
<!DOCTYPE svg PUBLIC "-//W3C//DTD SVG 1.1//EN" "http://www.w3.org/Graphics/SVG/1.1/DTD/svg11.dtd">
<svg width="256pt" height="256pt" viewBox="0 0 256 256" version="1.1" xmlns="http://www.w3.org/2000/svg">
<g id="#ffffffff">
<path fill="#ffffff" opacity="1.00" d=" M 0.00 19.39 C 0.12 12.32 5.80 5.81 12.90 5.10 C 27.15 4.69 42.37 7.95 53.24 17.72 C 61.59 24.97 66.35 35.45 68.53 46.13 C 75.19 78.71 81.56 111.36 88.18 143.95 C 89.26 149.26 91.77 154.52 96.33 157.68 C 101.64 161.70 108.52 162.39 114.96 162.46 C 139.35 162.47 163.74 162.46 188.13 162.47 C 194.59 154.84 199.22 145.94 204.39 137.44 C 212.74 122.79 220.32 107.71 227.69 92.54 C 230.26 86.77 236.68 82.96 243.00 83.86 C 249.72 84.55 255.18 90.30 256.00 96.94 L 256.00 99.29 C 255.41 104.72 252.14 109.28 249.97 114.16 C 243.18 128.38 235.86 142.33 228.03 156.00 C 221.45 166.52 215.08 177.43 205.94 185.97 C 202.19 189.52 197.29 192.24 191.98 191.99 C 165.98 191.99 139.99 192.03 113.99 191.98 C 100.40 191.94 86.41 188.07 75.99 179.05 C 68.62 172.79 63.20 164.29 60.62 154.98 C 59.07 150.01 58.24 144.86 57.20 139.77 C 51.28 110.24 45.40 80.69 39.46 51.16 C 38.47 45.92 35.91 40.60 31.10 37.90 C 25.72 34.70 19.29 34.75 13.25 34.31 C 6.12 33.79 0.31 27.39 0.00 20.33 L 0.00 19.39 Z" />
<path fill="#ffffff" opacity="1.00" d=" M 131.68 19.96 C 136.17 16.21 142.29 15.41 147.92 15.18 C 153.42 15.47 159.39 16.26 163.71 19.99 C 165.91 34.63 166.23 49.46 167.21 64.21 C 174.46 64.27 181.71 64.12 188.95 64.28 C 192.73 64.15 195.75 68.42 194.00 71.88 C 192.18 75.34 189.57 78.32 187.34 81.51 C 177.74 93.75 167.26 105.28 156.40 116.41 C 153.98 118.51 152.09 121.60 148.90 122.56 C 145.14 123.45 142.80 119.83 140.38 117.66 C 126.96 103.95 113.78 89.87 102.69 74.17 C 100.88 71.99 99.99 68.48 102.19 66.25 C 103.52 64.45 105.93 64.23 107.99 64.21 C 114.80 64.21 121.62 64.22 128.43 64.22 C 129.41 49.46 129.49 34.60 131.68 19.96 Z" />
<path fill="#ffffff" opacity="1.00" d=" M 97.52 202.62 C 111.01 198.86 126.02 209.01 127.66 222.88 C 129.99 236.09 119.49 249.78 106.09 250.82 C 93.43 252.61 80.72 242.80 79.14 230.14 C 76.99 217.99 85.51 205.32 97.52 202.62 Z" />
<path fill="#ffffff" opacity="1.00" d=" M 185.58 202.77 C 199.20 198.61 214.71 208.85 216.29 222.98 C 218.63 236.39 207.71 250.15 194.12 250.88 C 181.58 252.33 169.21 242.48 167.71 229.98 C 165.68 218.07 173.92 205.71 185.58 202.77 Z" />
</g>
</svg>
