<?xml version="1.0" encoding="UTF-8" ?>
<!DOCTYPE svg PUBLIC "-//W3C//DTD SVG 1.1//EN" "http://www.w3.org/Graphics/SVG/1.1/DTD/svg11.dtd">
<svg width="256pt" height="256pt" viewBox="0 0 256 256" version="1.1" xmlns="http://www.w3.org/2000/svg">
<g id="#cba35dff">
<path fill="#cba35d" opacity="1.00" d=" M 91.05 9.75 C 117.91 2.57 147.21 5.00 172.53 16.47 C 179.00 19.37 180.16 29.05 174.61 33.43 C 170.84 36.96 165.28 36.02 161.01 34.04 C 132.51 22.03 98.49 24.25 71.77 39.82 C 51.92 51.23 36.07 69.50 27.74 90.85 C 19.79 111.09 18.58 133.93 24.39 154.89 C 30.41 177.27 44.53 197.27 63.38 210.70 C 81.94 224.10 105.16 230.81 128.00 229.48 C 147.90 228.46 167.47 221.41 183.35 209.34 C 202.39 195.12 216.26 174.06 221.47 150.85 C 224.02 140.40 224.20 129.58 224.14 118.88 C 223.89 113.94 227.00 108.78 232.04 107.75 C 238.08 106.02 244.62 111.05 244.67 117.30 C 245.12 131.43 244.39 145.76 240.62 159.44 C 234.52 182.77 221.19 204.14 202.99 219.95 C 179.48 240.92 147.51 251.94 116.07 250.12 C 83.91 248.72 52.66 233.74 31.36 209.61 C 11.68 188.13 0.67 159.34 0.00 130.29 L 0.00 126.54 C 0.49 101.51 8.38 76.53 23.29 56.33 C 39.66 33.67 63.95 16.75 91.05 9.75 Z" />
<path fill="#cba35d" opacity="1.00" d=" M 237.18 21.07 C 239.72 18.46 243.25 16.45 247.02 17.09 C 251.91 17.60 255.61 22.06 256.00 26.84 L 256.00 27.35 C 255.72 30.59 254.08 33.50 251.78 35.72 C 211.43 76.06 171.10 116.42 130.75 156.75 C 128.26 159.26 124.81 161.18 121.17 160.62 C 117.39 160.24 114.65 157.36 112.11 154.83 C 102.50 145.16 92.85 135.53 83.20 125.91 C 81.03 123.70 78.82 121.14 78.61 117.89 C 77.95 112.73 81.90 107.52 87.06 106.80 C 90.94 105.99 94.68 108.02 97.30 110.74 C 105.67 119.10 114.03 127.47 122.39 135.85 C 160.66 97.60 198.91 59.33 237.18 21.07 Z" />
</g>
</svg>
