<?xml version="1.0" encoding="UTF-8" ?>
<!DOCTYPE svg PUBLIC "-//W3C//DTD SVG 1.1//EN" "http://www.w3.org/Graphics/SVG/1.1/DTD/svg11.dtd">
<svg width="512pt" height="512pt" viewBox="0 0 512 512" version="1.1" xmlns="http://www.w3.org/2000/svg">
<g id="#cba35dff">
<path fill="#cba35d" opacity="1.00" d=" M 253.55 0.00 L 258.31 0.00 C 293.92 0.44 329.49 8.11 361.87 23.01 C 421.41 49.93 469.74 100.57 493.78 161.33 C 505.58 190.59 511.56 222.08 512.00 253.59 L 512.00 258.34 C 511.53 301.66 500.06 344.85 478.47 382.44 C 459.86 415.10 433.97 443.61 403.22 465.24 C 361.22 495.14 309.94 511.50 258.41 512.00 L 253.74 512.00 C 202.16 511.54 150.82 495.17 108.78 465.24 C 84.75 448.32 63.65 427.23 46.74 403.19 C 16.85 361.19 0.49 309.91 0.00 258.40 L 0.00 253.66 C 0.46 214.29 9.88 175.01 27.91 139.97 C 55.76 85.08 104.07 40.90 161.32 18.22 C 190.56 6.43 222.04 0.44 253.55 0.00 M 232.61 55.86 C 219.37 57.46 206.21 60.14 193.58 64.48 C 186.39 67.29 178.91 69.42 172.05 73.03 C 129.13 92.61 93.52 127.84 73.69 170.67 C 50.05 219.76 48.13 278.83 68.49 329.37 C 81.45 362.65 103.59 392.29 131.70 414.31 C 165.48 440.92 207.93 456.60 251.01 457.41 C 300.99 458.97 351.08 440.49 388.50 407.46 C 419.63 380.52 441.83 343.67 451.78 303.77 C 462.52 259.88 458.14 212.27 438.67 171.42 C 416.16 122.20 372.77 83.05 321.53 65.63 C 293.23 55.38 262.45 52.53 232.61 55.86 Z" />
<path fill="#cba35d" opacity="1.00" d=" M 247.45 89.58 C 254.88 87.36 263.41 89.69 268.64 95.43 C 272.64 99.54 274.47 105.34 274.37 111.00 C 274.38 156.70 274.37 202.39 274.38 248.09 C 312.25 248.10 350.13 248.09 388.01 248.09 C 393.62 247.96 399.37 249.71 403.51 253.60 C 409.59 258.92 411.95 267.92 409.44 275.57 C 406.66 285.05 396.69 291.08 387.02 290.26 C 342.37 290.20 297.72 290.32 253.07 290.20 C 241.83 290.34 231.96 280.26 232.25 269.04 C 232.19 216.03 232.20 163.02 232.25 110.01 C 232.09 100.81 238.52 91.98 247.45 89.58 Z" />
</g>
</svg>
