<?xml version="1.0" encoding="UTF-8" ?>
<!DOCTYPE svg PUBLIC "-//W3C//DTD SVG 1.1//EN" "http://www.w3.org/Graphics/SVG/1.1/DTD/svg11.dtd">
<svg width="500pt" height="135pt" viewBox="0 0 500 135" version="1.1" xmlns="http://www.w3.org/2000/svg">
<g id="#bebebeff">
<path fill="#bebebe" opacity="1.00" d=" M 0.00 0.00 L 500.00 0.00 L 500.00 135.00 L 0.00 135.00 L 0.00 0.00 M 5.55 5.56 C 5.55 24.13 5.55 42.70 5.55 61.27 C 168.52 61.27 331.48 61.27 494.44 61.27 C 494.45 42.70 494.44 24.13 494.45 5.56 C 331.48 5.56 168.52 5.56 5.55 5.56 M 5.55 66.65 C 5.55 87.94 5.55 109.22 5.55 130.50 C 168.52 130.50 331.48 130.50 494.45 130.50 C 494.44 109.22 494.45 87.94 494.44 66.65 C 331.48 66.65 168.52 66.65 5.55 66.65 Z" />
<path fill="#bebebe" opacity="1.00" d=" M 72.90 17.97 C 74.53 17.91 75.78 18.85 77.04 19.75 C 78.98 20.05 80.17 17.80 82.13 17.78 C 82.10 20.51 79.73 22.86 76.93 22.30 C 74.57 22.18 73.48 19.93 72.90 17.97 Z" />
<path fill="#bebebe" opacity="1.00" d=" M 27.51 25.55 C 31.75 22.43 37.88 23.22 41.73 26.61 C 40.98 27.49 40.24 28.37 39.50 29.25 C 37.10 27.50 33.96 25.95 31.02 27.42 C 25.62 29.71 25.73 38.63 31.20 40.79 C 34.19 42.17 37.27 40.55 39.65 38.75 C 40.21 39.33 41.33 40.49 41.88 41.07 C 38.02 45.05 31.19 45.87 26.89 42.13 C 21.88 38.02 22.15 29.25 27.51 25.55 Z" />
<path fill="#bebebe" opacity="1.00" d=" M 43.66 44.19 C 46.63 37.39 49.59 30.58 52.57 23.79 C 53.40 23.79 55.04 23.80 55.86 23.80 C 58.83 30.60 61.81 37.40 64.76 44.20 C 63.83 44.20 61.95 44.20 61.01 44.20 C 60.32 42.57 59.64 40.94 58.95 39.31 C 55.76 39.31 52.57 39.31 49.38 39.32 C 48.68 40.95 47.99 42.58 47.29 44.21 C 46.38 44.20 44.57 44.20 43.66 44.19 M 54.16 28.05 C 52.99 30.75 51.84 33.45 50.68 36.15 C 53.01 36.16 55.33 36.16 57.65 36.16 C 56.49 33.45 55.32 30.75 54.16 28.05 Z" />
<path fill="#bebebe" opacity="1.00" d=" M 68.97 23.94 C 69.85 23.94 71.59 23.94 72.47 23.94 C 72.47 28.86 72.47 33.79 72.47 38.71 C 75.90 33.79 79.30 28.84 82.74 23.92 C 83.56 23.93 85.21 23.94 86.04 23.95 C 86.04 30.70 86.04 37.45 86.04 44.20 C 85.16 44.20 83.42 44.20 82.54 44.20 C 82.54 39.28 82.55 34.37 82.54 29.45 C 79.11 34.36 75.73 39.30 72.31 44.21 C 71.48 44.21 69.81 44.20 68.97 44.20 C 68.97 37.44 68.97 30.69 68.97 23.94 Z" />
<path fill="#bebebe" opacity="1.00" d=" M 90.56 27.23 C 90.57 26.13 90.57 25.04 90.56 23.94 C 96.03 23.94 101.51 23.94 106.98 23.94 C 106.98 24.76 106.98 26.41 106.98 27.23 C 104.84 27.23 102.70 27.24 100.56 27.24 C 100.57 32.89 100.56 38.54 100.56 44.20 C 99.67 44.20 97.88 44.20 96.98 44.20 C 96.98 38.54 96.99 32.89 96.98 27.23 C 94.84 27.23 92.70 27.23 90.56 27.23 Z" />
<path fill="#bebebe" opacity="1.00" d=" M 123.91 25.77 C 128.14 22.42 134.52 23.11 138.43 26.64 C 137.68 27.50 136.94 28.37 136.19 29.23 C 133.74 27.42 130.45 25.91 127.49 27.52 C 122.22 30.03 122.56 38.88 128.09 40.87 C 131.04 42.10 134.02 40.52 136.34 38.76 C 137.09 39.53 137.83 40.29 138.58 41.06 C 134.78 44.97 128.11 45.86 123.80 42.30 C 118.70 38.35 118.75 29.65 123.91 25.77 Z" />
<path fill="#bebebe" opacity="1.00" d=" M 148.34 24.45 C 153.96 21.89 161.49 25.07 162.88 31.25 C 164.71 37.23 160.17 44.07 153.88 44.47 C 148.56 45.27 143.03 41.42 142.24 36.04 C 141.28 31.37 143.89 26.25 148.34 24.45 M 150.22 27.28 C 144.37 29.27 144.37 38.76 150.18 40.82 C 154.67 42.79 159.93 38.75 159.51 33.95 C 159.73 29.28 154.62 25.43 150.22 27.28 Z" />
<path fill="#bebebe" opacity="1.00" d=" M 166.71 26.46 C 170.43 23.42 176.50 22.21 180.32 25.69 C 182.88 28.11 181.60 32.31 178.61 33.71 C 182.26 34.97 183.54 39.95 180.52 42.54 C 176.30 46.03 170.02 44.57 165.98 41.50 C 166.61 40.64 167.21 39.77 167.78 38.86 C 170.39 40.68 173.77 42.33 176.95 40.97 C 178.78 40.27 179.32 37.52 177.66 36.36 C 175.92 35.22 173.71 35.57 171.75 35.36 C 171.75 34.67 171.75 33.30 171.75 32.61 C 173.63 32.35 175.84 32.79 177.42 31.47 C 178.68 30.29 178.31 27.98 176.74 27.25 C 173.94 25.86 170.87 27.30 168.46 28.81 C 167.87 28.02 167.29 27.24 166.71 26.46 Z" />
<path fill="#bebebe" opacity="1.00" d=" M 189.37 23.94 C 194.06 23.94 198.76 23.94 203.46 23.94 C 203.45 29.61 203.47 35.29 203.45 40.96 C 204.08 40.98 205.35 41.04 205.99 41.06 C 205.81 43.55 205.64 46.04 205.48 48.53 C 204.75 48.53 203.28 48.53 202.54 48.53 C 202.54 47.09 202.54 45.64 202.54 44.20 C 197.78 44.20 193.03 44.20 188.27 44.20 C 188.15 45.65 188.04 47.09 187.92 48.53 C 187.14 48.53 185.58 48.53 184.80 48.52 C 184.80 46.11 184.80 43.69 184.80 41.28 C 185.31 41.15 186.32 40.88 186.83 40.75 C 189.50 35.60 189.29 29.59 189.37 23.94 M 192.79 27.16 C 192.86 31.86 192.44 36.62 190.67 41.03 C 193.75 41.01 196.83 41.01 199.90 41.02 C 199.90 36.39 199.90 31.77 199.90 27.15 C 197.53 27.15 195.16 27.16 192.79 27.16 Z" />
<path fill="#bebebe" opacity="1.00" d=" M 208.16 44.20 C 211.11 37.40 214.10 30.60 217.06 23.80 C 217.88 23.80 219.53 23.79 220.35 23.79 C 223.33 30.59 226.30 37.39 229.26 44.19 C 228.32 44.20 226.46 44.21 225.52 44.21 C 224.83 42.58 224.15 40.95 223.46 39.31 C 220.25 39.31 217.03 39.30 213.82 39.34 C 213.15 40.96 212.49 42.58 211.81 44.20 C 210.90 44.20 209.07 44.20 208.16 44.20 M 218.65 28.05 C 217.49 30.75 216.33 33.46 215.18 36.16 C 217.50 36.16 219.83 36.16 222.15 36.15 C 220.99 33.45 219.82 30.75 218.65 28.05 Z" />
<path fill="#bebebe" opacity="1.00" d=" M 233.47 23.94 C 234.36 23.94 236.14 23.94 237.03 23.94 C 237.02 26.75 237.03 29.56 237.03 32.37 C 240.25 32.36 243.47 32.36 246.69 32.36 C 246.69 29.56 246.70 26.75 246.69 23.94 C 247.58 23.94 249.36 23.94 250.24 23.94 C 250.24 30.70 250.24 37.45 250.24 44.20 C 249.36 44.20 247.58 44.20 246.69 44.20 C 246.70 41.35 246.69 38.50 246.69 35.66 C 243.47 35.65 240.25 35.65 237.03 35.65 C 237.03 38.50 237.02 41.35 237.03 44.20 C 236.14 44.20 234.36 44.20 233.47 44.20 C 233.47 37.45 233.47 30.70 233.47 23.94 Z" />
<path fill="#bebebe" opacity="1.00" d=" M 263.86 44.20 C 266.82 37.40 269.79 30.59 272.77 23.79 C 273.59 23.80 275.23 23.80 276.06 23.80 C 279.03 30.60 282.00 37.40 284.96 44.20 C 284.02 44.20 282.15 44.20 281.21 44.20 C 280.52 42.57 279.84 40.94 279.15 39.31 C 275.95 39.31 272.76 39.31 269.57 39.32 C 268.88 40.94 268.19 42.57 267.51 44.19 C 266.29 44.19 265.07 44.20 263.86 44.20 M 270.88 36.15 C 273.20 36.16 275.53 36.16 277.85 36.16 C 276.69 33.46 275.52 30.75 274.36 28.05 C 273.19 30.75 272.03 33.45 270.88 36.15 Z" />
<path fill="#bebebe" opacity="1.00" d=" M 289.17 23.94 C 293.71 23.94 298.25 23.94 302.79 23.94 C 302.79 24.74 302.79 26.35 302.79 27.15 C 299.42 27.15 296.06 27.15 292.70 27.16 C 292.69 32.84 292.70 38.52 292.69 44.20 C 291.52 44.20 290.34 44.20 289.18 44.21 C 289.17 37.45 289.17 30.70 289.17 23.94 Z" />
<path fill="#bebebe" opacity="1.00" d=" M 307.08 23.94 C 312.09 23.94 317.09 23.94 322.10 23.94 C 322.10 24.74 322.09 26.33 322.09 27.12 C 318.27 27.12 314.45 27.12 310.63 27.13 C 310.63 28.88 310.64 30.64 310.64 32.39 C 314.02 32.39 317.41 32.39 320.80 32.39 C 320.79 33.45 320.79 34.51 320.79 35.58 C 317.40 35.57 314.02 35.57 310.64 35.58 C 310.63 37.39 310.64 39.20 310.64 41.01 C 314.51 41.02 318.37 41.01 322.24 41.02 C 322.24 41.81 322.23 43.40 322.23 44.20 C 317.18 44.20 312.13 44.20 307.08 44.20 C 307.08 37.45 307.08 30.69 307.08 23.94 Z" />
<path fill="#bebebe" opacity="1.00" d=" M 327.19 23.94 C 328.37 23.94 329.56 23.94 330.75 23.94 C 330.74 26.75 330.75 29.55 330.75 32.36 C 333.97 32.36 337.19 32.36 340.41 32.36 C 340.41 29.56 340.42 26.75 340.41 23.95 C 341.59 23.94 342.78 23.94 343.97 23.94 C 343.97 30.69 343.97 37.45 343.97 44.20 C 343.08 44.20 341.30 44.20 340.42 44.20 C 340.42 41.35 340.41 38.50 340.41 35.65 C 337.19 35.65 333.97 35.65 330.75 35.65 C 330.75 38.50 330.74 41.35 330.74 44.20 C 329.56 44.20 328.38 44.20 327.20 44.20 C 327.19 37.45 327.19 30.69 327.19 23.94 Z" />
<path fill="#bebebe" opacity="1.00" d=" M 348.46 23.94 C 353.93 23.94 359.41 23.94 364.89 23.94 C 364.89 24.76 364.89 26.41 364.89 27.23 C 362.74 27.23 360.60 27.24 358.47 27.24 C 358.47 32.89 358.47 38.54 358.47 44.20 C 357.57 44.20 355.78 44.20 354.88 44.20 C 354.88 38.54 354.88 32.89 354.88 27.23 C 352.74 27.23 350.60 27.23 348.47 27.23 C 348.46 26.14 348.46 25.04 348.46 23.94 Z" />
<path fill="#bebebe" opacity="1.00" d=" M 370.89 25.82 C 375.12 22.41 381.54 23.10 385.49 26.62 C 384.74 27.49 383.99 28.36 383.25 29.23 C 380.94 27.61 378.04 26.05 375.17 27.26 C 369.63 29.19 369.28 37.97 374.45 40.56 C 377.49 42.26 380.91 40.73 383.39 38.77 C 384.13 39.53 384.88 40.29 385.64 41.06 C 381.84 44.98 375.15 45.86 370.83 42.28 C 365.78 38.33 365.79 29.73 370.89 25.82 Z" />
<path fill="#bebebe" opacity="1.00" d=" M 388.57 23.94 C 394.04 23.94 399.52 23.94 404.99 23.94 C 404.99 24.76 404.99 26.41 404.99 27.23 C 402.85 27.23 400.71 27.24 398.57 27.24 C 398.57 32.89 398.57 38.55 398.57 44.20 C 397.67 44.20 395.88 44.20 394.99 44.20 C 394.99 38.54 394.99 32.89 394.99 27.23 C 392.84 27.23 390.70 27.23 388.57 27.23 C 388.57 26.41 388.57 24.76 388.57 23.94 Z" />
<path fill="#bebebe" opacity="1.00" d=" M 409.49 23.95 C 413.72 24.19 418.16 23.29 422.25 24.64 C 426.10 26.10 426.05 31.67 422.66 33.63 C 424.30 34.63 426.30 35.79 426.32 38.00 C 426.82 40.88 424.49 43.42 421.75 43.87 C 417.70 44.53 413.57 44.08 409.49 44.20 C 409.49 37.45 409.49 30.70 409.49 23.95 M 412.99 27.08 C 412.98 28.88 412.98 30.68 412.99 32.49 C 415.30 32.43 417.67 32.69 419.95 32.14 C 422.23 31.53 422.26 27.96 419.97 27.38 C 417.67 26.89 415.31 27.13 412.99 27.08 M 412.99 35.48 C 412.98 37.34 412.98 39.19 412.99 41.05 C 415.61 41.00 418.29 41.27 420.89 40.75 C 423.34 40.26 423.46 36.27 420.92 35.79 C 418.30 35.26 415.62 35.52 412.99 35.48 Z" />
<path fill="#bebebe" opacity="1.00" d=" M 436.42 24.48 C 442.29 21.70 450.19 25.39 451.18 31.97 C 452.66 38.19 447.38 44.74 440.98 44.54 C 434.82 44.97 429.39 39.10 430.26 33.00 C 430.56 29.32 433.01 25.91 436.42 24.48 M 437.48 27.68 C 432.13 30.46 433.07 39.66 439.03 41.04 C 443.82 42.58 448.57 37.75 447.58 32.98 C 447.22 28.30 441.54 25.24 437.48 27.68 Z" />
<path fill="#bebebe" opacity="1.00" d=" M 456.42 23.95 C 457.67 23.94 458.94 23.94 460.20 23.94 C 462.26 27.13 464.32 30.32 466.37 33.52 C 468.39 30.37 470.45 27.26 472.38 24.06 C 473.69 24.03 475.00 23.98 476.32 23.88 C 476.32 30.65 476.32 37.43 476.32 44.20 C 475.43 44.20 473.66 44.20 472.77 44.20 C 472.76 39.36 472.77 34.53 472.76 29.69 C 470.60 32.89 468.46 36.09 466.32 39.30 C 464.19 36.12 462.06 32.92 459.93 29.74 C 459.91 34.56 459.92 39.38 459.92 44.20 C 458.75 44.20 457.58 44.20 456.42 44.20 C 456.42 37.45 456.42 30.70 456.42 23.95 Z" />
<path fill="#bebebe" opacity="1.00" d=" M 296.37 84.72 C 298.22 84.72 300.06 84.72 301.92 84.72 C 301.92 88.22 301.92 91.73 301.93 95.24 C 306.00 91.74 310.06 88.23 314.13 84.73 C 316.96 84.72 319.80 84.72 322.64 84.72 C 318.50 88.30 314.35 91.86 310.21 95.44 C 314.83 101.11 319.45 106.76 324.06 112.43 C 321.67 112.44 319.29 112.44 316.91 112.44 C 313.27 107.99 309.64 103.52 306.00 99.07 C 304.59 100.24 303.26 101.49 301.88 102.69 C 301.94 105.94 301.92 109.19 301.92 112.44 C 300.07 112.44 298.22 112.44 296.37 112.44 C 296.37 103.20 296.37 93.96 296.37 84.72 Z" />
<path fill="#bebebe" opacity="1.00" d=" M 23.69 84.80 C 32.95 84.80 42.20 84.80 51.46 84.80 C 51.46 93.99 51.46 103.17 51.46 112.36 C 49.61 112.36 47.76 112.36 45.91 112.36 C 45.91 105.02 45.91 97.69 45.91 90.36 C 40.35 90.36 34.79 90.36 29.24 90.36 C 29.24 97.69 29.24 105.02 29.24 112.36 C 27.39 112.36 25.54 112.36 23.69 112.36 C 23.69 103.17 23.69 93.99 23.69 84.80 Z" />
<path fill="#bebebe" opacity="1.00" d=" M 65.04 84.80 C 70.71 84.82 76.37 84.76 82.04 84.80 C 84.75 84.78 87.51 85.58 89.56 87.40 C 93.89 91.08 93.89 98.85 89.13 102.19 C 83.88 106.41 76.75 104.34 70.59 104.82 C 70.60 107.33 70.57 109.85 70.58 112.36 C 68.73 112.36 66.89 112.36 65.04 112.36 C 65.04 103.17 65.04 93.99 65.04 84.80 M 70.59 90.36 C 70.58 93.33 70.59 96.30 70.59 99.27 C 75.09 99.10 79.64 99.66 84.10 98.94 C 88.11 98.27 88.32 91.77 84.46 90.72 C 79.90 89.91 75.20 90.56 70.59 90.36 Z" />
<path fill="#bebebe" opacity="1.00" d=" M 111.48 85.67 C 118.83 82.04 128.56 86.34 130.87 94.18 C 133.49 101.51 128.81 110.26 121.30 112.22 C 114.28 114.43 106.16 110.13 103.95 103.15 C 101.53 96.50 105.01 88.49 111.48 85.67 M 114.25 90.25 C 108.04 92.28 106.47 101.39 111.64 105.38 C 116.52 109.92 125.38 106.61 126.17 100.03 C 127.54 93.58 120.31 87.62 114.25 90.25 Z" />
<path fill="#bebebe" opacity="1.00" d=" M 152.18 85.24 C 159.57 83.11 167.89 88.41 169.13 95.97 C 170.74 103.23 165.37 111.02 158.03 112.14 C 150.82 113.64 143.17 108.28 142.05 101.01 C 140.65 94.15 145.38 86.83 152.18 85.24 M 146.99 99.07 C 147.05 102.72 149.82 105.50 152.93 106.99 C 153.05 101.38 153.03 95.78 152.94 90.17 C 149.48 91.72 146.62 95.09 146.99 99.07 M 158.60 90.26 C 158.50 95.81 158.49 101.36 158.61 106.91 C 161.56 105.30 164.19 102.55 164.23 99.00 C 164.55 95.16 161.85 91.92 158.60 90.26 Z" />
<path fill="#bebebe" opacity="1.00" d=" M 180.92 84.72 C 182.77 84.72 184.62 84.72 186.47 84.72 C 186.48 91.05 186.47 97.38 186.48 103.71 C 192.02 97.39 197.53 91.04 203.07 84.72 C 204.94 84.72 206.81 84.72 208.69 84.72 C 208.69 93.96 208.69 103.20 208.69 112.44 C 206.84 112.44 204.99 112.44 203.15 112.44 C 203.13 106.05 203.14 99.67 203.14 93.28 C 197.66 99.65 192.07 105.92 186.67 112.36 C 184.76 112.40 182.84 112.46 180.92 112.45 C 180.92 103.21 180.92 93.97 180.92 84.72 Z" />
<path fill="#bebebe" opacity="1.00" d=" M 331.79 84.58 C 341.02 84.58 350.24 84.58 359.47 84.58 C 359.46 86.43 359.46 88.28 359.47 90.14 C 355.75 90.14 352.03 90.14 348.32 90.14 C 348.33 97.62 348.32 105.09 348.32 112.57 C 346.47 112.57 344.61 112.57 342.76 112.57 C 342.77 105.09 342.76 97.62 342.77 90.14 C 339.11 90.14 335.45 90.14 331.79 90.14 C 331.79 88.28 331.78 86.43 331.79 84.58 Z" />
<path fill="#bebebe" opacity="1.00" d=" M 370.70 84.72 C 372.54 84.72 374.39 84.72 376.25 84.72 C 376.25 91.05 376.24 97.39 376.25 103.72 C 381.78 97.39 387.31 91.05 392.84 84.72 C 394.71 84.72 396.59 84.72 398.47 84.72 C 398.47 93.96 398.47 103.20 398.47 112.44 C 396.61 112.44 394.76 112.44 392.92 112.44 C 392.91 106.05 392.92 99.67 392.91 93.28 C 387.37 99.67 381.84 106.06 376.29 112.44 C 374.42 112.44 372.56 112.43 370.70 112.43 C 370.70 103.20 370.70 93.96 370.70 84.72 Z" />
<path fill="#bebebe" opacity="1.00" d=" M 412.05 84.72 C 413.89 84.72 415.74 84.72 417.60 84.72 C 417.60 88.23 417.60 91.74 417.60 95.24 C 421.69 91.74 425.75 88.21 429.84 84.71 C 432.66 84.72 435.48 84.72 438.31 84.73 C 434.17 88.30 430.03 91.87 425.89 95.43 C 430.50 101.10 435.13 106.76 439.74 112.43 C 437.37 112.42 435.01 112.45 432.65 112.47 C 428.95 108.04 425.34 103.53 421.68 99.07 C 420.31 100.25 418.95 101.43 417.59 102.62 C 417.60 105.89 417.60 109.16 417.60 112.44 C 415.74 112.44 413.89 112.44 412.05 112.44 C 412.04 103.20 412.05 93.96 412.05 84.72 Z" />
<path fill="#bebebe" opacity="1.00" d=" M 448.45 112.42 C 453.01 103.20 457.57 93.97 462.15 84.75 C 466.84 93.97 471.53 103.19 476.21 112.42 C 474.12 112.42 472.06 112.42 469.98 112.42 C 469.17 110.84 468.37 109.26 467.56 107.69 C 464.03 107.70 460.50 107.70 456.98 107.70 C 456.20 109.27 455.42 110.84 454.65 112.41 C 452.58 112.42 450.51 112.42 448.45 112.42 M 459.81 102.14 C 461.48 102.14 463.16 102.14 464.84 102.15 C 464.00 100.47 463.15 98.80 462.32 97.12 C 461.48 98.79 460.64 100.46 459.81 102.14 Z" />
<path fill="#bebebe" opacity="1.00" d=" M 220.19 112.43 C 224.76 103.20 229.35 93.96 233.94 84.73 C 238.58 93.96 243.22 103.20 247.86 112.43 C 245.78 112.43 243.71 112.44 241.64 112.44 C 239.09 107.33 236.57 102.20 234.03 97.08 C 231.47 102.20 228.93 107.33 226.36 112.45 C 224.30 112.44 222.24 112.43 220.19 112.43 Z" />
<path fill="#bebebe" opacity="1.00" d=" M 258.30 112.42 C 262.86 103.19 267.42 93.97 272.00 84.75 C 276.69 93.97 281.37 103.20 286.05 112.42 C 283.97 112.42 281.90 112.42 279.83 112.42 C 279.02 110.85 278.23 109.27 277.42 107.70 C 273.89 107.70 270.36 107.70 266.84 107.70 C 266.04 109.28 265.25 110.85 264.46 112.43 C 262.40 112.42 260.35 112.42 258.30 112.42 M 272.10 97.12 C 271.26 98.79 270.43 100.47 269.60 102.14 C 271.27 102.14 272.95 102.14 274.63 102.14 C 273.78 100.47 272.94 98.79 272.10 97.12 Z" />
</g>
</svg>
