<?xml version="1.0" encoding="UTF-8" ?>
<!DOCTYPE svg PUBLIC "-//W3C//DTD SVG 1.1//EN" "http://www.w3.org/Graphics/SVG/1.1/DTD/svg11.dtd">
<svg width="512pt" height="512pt" viewBox="0 0 512 512" version="1.1" xmlns="http://www.w3.org/2000/svg">
<g id="#ffffffff">
<path fill="#ffffff" opacity="1.00" d=" M 21.36 0.00 L 490.64 0.00 C 500.82 3.16 508.93 11.22 512.00 21.41 L 512.00 490.74 C 508.24 500.60 500.85 508.83 490.63 512.00 L 353.00 512.00 C 353.01 445.66 352.97 379.33 353.01 312.99 C 375.15 313.03 397.30 313.11 419.44 312.74 C 422.25 287.46 425.88 262.27 429.01 237.02 C 403.68 237.02 378.36 236.97 353.04 237.00 C 353.18 217.06 352.26 197.11 353.44 177.20 C 353.90 169.52 357.10 162.05 362.72 156.73 C 368.33 152.10 375.61 150.57 382.64 149.61 C 399.05 148.43 415.53 149.04 431.98 149.00 C 432.03 126.34 432.04 103.69 431.96 81.03 C 406.39 78.66 380.59 76.53 354.94 78.95 C 331.01 82.36 307.13 93.78 293.08 114.04 C 280.63 130.68 275.18 151.53 274.35 172.05 C 273.53 193.69 274.13 215.35 274.00 236.99 C 251.68 236.96 229.35 237.04 207.03 237.01 C 206.96 262.33 206.97 287.66 207.03 312.99 C 229.34 312.96 251.66 313.04 273.99 313.01 C 274.03 379.34 273.98 445.67 274.00 512.00 L 21.36 512.00 C 11.18 508.84 3.07 500.78 0.00 490.59 L 0.00 21.41 C 3.07 11.22 11.18 3.16 21.36 0.00 Z" />
</g>
</svg>
