<?xml version="1.0" encoding="UTF-8" ?>
<!DOCTYPE svg PUBLIC "-//W3C//DTD SVG 1.1//EN" "http://www.w3.org/Graphics/SVG/1.1/DTD/svg11.dtd">
<svg width="256pt" height="256pt" viewBox="0 0 256 256" version="1.1" xmlns="http://www.w3.org/2000/svg">
<g id="#cba35dff">
<path fill="#cba35d" opacity="1.00" d=" M 102.30 0.00 L 205.54 0.00 C 209.12 0.81 213.00 0.76 216.21 2.78 C 224.83 7.07 230.49 16.39 230.35 26.03 C 230.38 94.01 230.37 161.99 230.36 229.97 C 230.40 239.32 225.15 248.51 216.83 252.88 C 213.48 255.13 209.37 255.19 205.55 256.00 L 49.49 256.00 C 46.00 255.15 42.25 254.91 39.17 252.88 C 30.84 248.51 25.60 239.32 25.65 229.97 C 25.65 179.97 25.73 129.96 25.83 79.96 C 25.95 78.56 25.62 76.84 26.85 75.82 C 52.01 50.56 77.24 25.36 102.30 0.00 M 66.04 142.05 C 65.95 145.35 65.95 148.65 66.04 151.95 C 107.01 152.03 147.99 152.03 188.95 151.96 C 189.05 148.65 189.05 145.34 188.95 142.04 C 147.99 141.98 107.01 141.96 66.04 142.05 M 66.04 172.04 C 65.95 175.34 65.95 178.65 66.05 181.96 C 107.01 182.03 147.99 182.03 188.96 181.96 C 189.05 178.65 189.05 175.35 188.96 172.05 C 147.99 171.97 107.01 171.97 66.04 172.04 M 66.04 202.04 C 65.95 205.34 65.94 208.65 66.05 211.95 C 107.01 212.04 147.99 212.02 188.96 211.96 C 189.05 208.66 189.05 205.35 188.95 202.04 C 147.98 201.97 107.01 201.97 66.04 202.04 Z" />
</g>
</svg>
