<?xml version="1.0" encoding="UTF-8" ?>
<!DOCTYPE svg PUBLIC "-//W3C//DTD SVG 1.1//EN" "http://www.w3.org/Graphics/SVG/1.1/DTD/svg11.dtd">
<svg width="256pt" height="256pt" viewBox="0 0 256 256" version="1.1" xmlns="http://www.w3.org/2000/svg">
<g id="#cba35dff">
<path fill="#cba35d" opacity="1.00" d=" M 112.68 0.00 L 144.34 0.00 C 150.41 4.26 149.50 12.48 151.61 18.78 C 154.67 30.19 166.34 37.76 177.85 37.76 C 186.76 37.41 193.54 31.20 200.97 27.20 C 207.19 24.03 211.40 31.06 215.86 34.11 C 221.19 39.99 229.65 45.08 229.81 53.93 C 226.60 62.41 218.21 69.21 219.24 79.05 C 218.11 91.23 227.72 102.52 239.20 105.47 C 245.14 106.90 252.15 107.25 256.00 112.75 L 256.00 144.33 C 250.50 151.49 240.23 148.80 233.12 153.23 C 220.53 159.30 213.85 176.36 221.43 188.74 C 223.87 194.51 229.71 198.87 229.61 205.57 C 223.63 215.22 215.32 223.69 205.64 229.68 C 201.68 232.04 197.86 228.22 194.70 226.33 C 186.63 220.48 175.60 216.85 166.06 221.07 C 160.61 223.91 155.55 228.01 152.43 233.38 C 148.36 240.57 150.94 250.93 143.27 256.00 L 111.65 256.00 C 105.93 251.90 106.39 244.18 104.35 238.13 C 101.36 222.47 81.04 213.08 67.28 221.46 C 61.52 223.92 57.12 229.68 50.43 229.62 C 40.74 223.61 32.32 215.26 26.23 205.61 C 26.29 194.99 38.25 188.11 36.77 176.95 C 37.76 168.46 32.82 160.70 26.68 155.34 C 19.35 148.07 6.36 151.86 0.00 143.26 L 0.00 111.68 C 4.54 105.12 13.29 106.39 19.93 103.76 C 33.42 99.32 41.80 82.45 35.53 69.29 C 33.40 63.89 29.58 59.41 27.04 54.25 C 25.13 46.70 32.98 42.01 37.04 37.04 C 42.22 32.96 46.72 25.66 53.91 25.60 C 61.94 28.13 67.79 35.68 76.53 36.52 C 87.79 38.31 98.77 31.92 103.74 21.86 C 108.13 15.10 105.48 4.98 112.68 0.00 M 124.46 86.50 C 105.12 87.83 88.60 104.44 86.39 123.53 C 83.14 146.92 103.26 170.37 126.99 170.14 C 150.70 171.80 173.00 148.74 169.84 125.03 C 169.02 102.53 146.77 83.72 124.46 86.50 Z" />
</g>
</svg>
