<?xml version="1.0" encoding="UTF-8" ?>
<!DOCTYPE svg PUBLIC "-//W3C//DTD SVG 1.1//EN" "http://www.w3.org/Graphics/SVG/1.1/DTD/svg11.dtd">
<svg width="256pt" height="256pt" viewBox="0 0 256 256" version="1.1" xmlns="http://www.w3.org/2000/svg">
<g id="#ffffffff">
<path fill="#ffffff" opacity="1.00" d=" M 126.69 0.00 L 128.59 0.00 C 155.26 0.27 181.86 8.77 203.33 24.68 C 227.66 42.29 245.43 68.79 252.35 98.04 C 254.76 107.40 255.59 117.07 256.00 126.70 L 256.00 128.60 C 255.69 151.14 249.77 173.69 238.10 193.03 C 221.01 222.25 191.79 244.13 158.89 252.11 C 149.02 254.74 138.80 255.64 128.62 256.00 L 126.90 256.00 C 100.63 255.62 74.47 247.27 53.23 231.74 C 28.89 214.29 10.96 188.00 3.89 158.87 C 1.30 149.23 0.42 139.24 0.00 129.30 L 0.00 126.94 C 0.42 121.25 0.37 115.51 1.41 109.88 C 5.98 76.09 25.05 44.63 52.67 24.68 C 73.94 8.91 100.27 0.43 126.69 0.00 M 114.45 17.77 C 99.56 19.59 85.05 24.43 72.12 32.05 C 49.25 45.30 31.42 67.00 22.92 92.03 C 13.76 118.60 15.17 148.70 27.03 174.21 C 36.45 194.91 52.47 212.54 72.13 223.95 C 96.50 238.37 126.56 242.68 154.04 235.95 C 179.57 229.94 202.62 214.34 217.94 193.09 C 235.09 169.73 242.35 139.41 237.68 110.81 C 233.45 82.13 217.10 55.58 193.71 38.53 C 171.26 21.75 142.23 14.29 114.45 17.77 Z" />
<path fill="#ffffff" opacity="1.00" d=" M 124.18 62.19 C 131.55 60.25 139.49 64.80 142.11 71.82 C 144.62 78.86 141.47 87.50 134.83 91.04 C 128.68 94.58 120.01 92.87 115.72 87.20 C 112.77 83.56 111.92 78.56 112.56 74.01 C 113.61 68.20 118.49 63.51 124.18 62.19 Z" />
<path fill="#ffffff" opacity="1.00" d=" M 103.97 111.86 C 103.87 108.62 106.74 105.75 109.98 105.84 C 117.32 105.68 124.66 105.84 132.00 105.76 C 134.45 105.74 137.35 105.73 139.04 107.84 C 140.61 109.46 140.64 111.83 140.64 113.95 C 140.61 132.36 140.63 150.77 140.63 169.18 C 144.47 169.11 149.70 168.55 151.50 172.92 C 152.70 177.49 151.85 182.34 152.09 187.03 C 152.54 190.62 149.75 194.31 145.99 194.17 C 134.35 194.29 122.70 194.19 111.06 194.21 C 107.87 194.52 104.37 192.43 104.06 189.06 C 103.72 185.39 103.98 181.71 103.89 178.03 C 103.88 175.60 103.84 172.70 105.96 171.03 C 108.39 168.81 111.91 169.52 114.91 169.39 C 114.90 156.45 114.91 143.51 114.91 130.57 C 111.11 130.72 105.83 131.02 104.31 126.57 C 103.49 121.74 104.01 116.75 103.97 111.86 Z" />
</g>
</svg>
