<?xml version="1.0" encoding="UTF-8" ?>
<!DOCTYPE svg PUBLIC "-//W3C//DTD SVG 1.1//EN" "http://www.w3.org/Graphics/SVG/1.1/DTD/svg11.dtd">
<svg width="406pt" height="406pt" viewBox="0 0 406 406" version="1.1" xmlns="http://www.w3.org/2000/svg">
<g id="#ffffffff">
<path fill="#ffffff" opacity="1.00" d=" M 76.44 0.00 L 329.56 0.00 C 348.05 3.23 365.79 11.56 379.32 24.68 C 393.67 38.38 402.57 57.12 406.00 76.53 L 406.00 329.56 C 402.77 348.05 394.44 365.79 381.32 379.32 C 367.62 393.67 348.88 402.57 329.47 406.00 L 76.44 406.00 C 57.95 402.77 40.21 394.44 26.68 381.32 C 12.33 367.62 3.43 348.88 0.00 329.47 L 0.00 76.53 C 3.43 57.12 12.33 38.38 26.68 24.68 C 40.21 11.56 57.95 3.23 76.44 0.00 M 314.43 71.47 C 301.21 72.84 296.02 91.77 305.69 100.31 C 313.78 109.54 331.55 105.27 334.25 93.15 C 338.59 81.50 326.39 68.06 314.43 71.47 M 189.45 89.59 C 154.77 93.12 122.79 114.20 104.97 144.00 C 82.69 180.36 83.42 229.46 106.94 265.06 C 128.88 299.86 170.89 320.90 211.96 316.78 C 253.36 314.49 291.57 286.76 307.84 248.84 C 324.69 210.64 318.60 163.29 291.93 131.05 C 267.90 100.80 227.80 84.44 189.45 89.59 Z" />
<path fill="#ffffff" opacity="1.00" d=" M 197.45 123.51 C 228.88 120.65 259.99 140.26 274.01 167.99 C 280.60 180.11 283.13 194.16 282.80 207.87 C 280.32 239.75 257.22 268.80 226.90 278.77 C 217.94 281.73 208.48 282.98 199.05 282.82 C 161.31 280.59 127.59 248.80 123.76 211.06 C 118.29 168.20 154.76 126.29 197.45 123.51 Z" />
</g>
</svg>
