<?xml version="1.0" encoding="UTF-8" ?>
<!DOCTYPE svg PUBLIC "-//W3C//DTD SVG 1.1//EN" "http://www.w3.org/Graphics/SVG/1.1/DTD/svg11.dtd">
<svg width="1920pt" height="609pt" viewBox="0 0 1920 609" version="1.1" xmlns="http://www.w3.org/2000/svg">
<g id="#cca35cff">
<path fill="#cca35c" opacity="1.00" d=" M 568.27 5.20 C 581.20 1.75 594.62 0.09 608.00 0.25 C 629.84 -0.20 652.08 3.41 671.87 12.93 C 701.12 26.92 723.76 53.65 733.22 84.62 C 709.94 92.80 686.73 101.18 663.46 109.40 C 660.35 95.53 651.35 83.08 639.05 75.93 C 627.55 69.32 613.80 68.18 600.83 69.31 C 587.41 70.65 574.36 77.39 566.27 88.31 C 560.31 95.95 556.93 105.36 555.63 114.90 C 554.78 122.56 555.03 130.28 555.00 137.97 C 555.00 156.97 555.00 175.98 555.00 194.98 C 555.13 204.67 554.50 214.44 556.11 224.04 C 558.42 237.93 565.74 251.33 577.52 259.35 C 586.65 265.78 597.91 268.78 609.02 268.52 C 628.08 269.12 646.51 258.56 657.21 243.06 C 663.89 233.70 666.87 222.17 666.78 210.76 C 644.19 210.75 621.60 210.75 599.01 210.76 C 598.99 190.42 599.00 170.09 599.00 149.75 C 645.75 149.75 692.50 149.75 739.24 149.75 C 739.26 173.19 739.23 196.62 739.26 220.05 C 738.84 255.08 720.47 288.71 692.73 309.72 C 668.92 327.82 638.84 337.35 608.98 336.75 C 587.35 337.02 565.35 333.51 545.67 324.25 C 528.50 316.33 513.34 303.86 502.82 288.10 C 488.25 266.73 482.29 240.62 481.26 215.08 C 481.23 184.38 481.26 153.68 481.25 122.98 C 482.28 94.94 490.63 66.49 508.29 44.32 C 523.29 25.15 544.94 11.72 568.27 5.20 Z" />
<path fill="#cca35c" opacity="1.00" d=" M 1064.94 11.96 C 1083.33 3.35 1103.85 0.01 1124.05 0.25 C 1145.77 -0.12 1167.85 3.70 1187.48 13.24 C 1216.32 27.40 1238.77 53.86 1248.12 84.59 C 1224.84 92.82 1201.61 101.24 1178.30 109.37 C 1175.39 95.73 1166.59 83.52 1154.69 76.30 C 1142.78 69.23 1128.37 68.04 1114.86 69.44 C 1102.00 70.93 1089.69 77.56 1081.79 87.88 C 1075.08 96.47 1071.42 107.23 1070.58 118.03 C 1069.95 128.69 1070.37 139.37 1070.25 150.03 C 1070.27 170.38 1070.21 190.73 1070.28 211.08 C 1070.35 222.56 1072.62 234.33 1078.74 244.20 C 1086.59 257.26 1100.87 266.08 1115.99 267.67 C 1129.59 268.96 1144.13 267.40 1155.82 259.80 C 1167.44 252.38 1175.58 240.09 1178.36 226.63 C 1201.62 235.52 1224.85 244.48 1248.12 253.34 C 1242.95 270.51 1233.87 286.54 1221.49 299.55 C 1208.46 313.19 1191.97 323.41 1174.10 329.41 C 1150.68 337.22 1125.47 338.18 1101.09 335.52 C 1072.51 332.22 1044.12 319.81 1025.26 297.60 C 1008.05 277.83 999.75 251.82 997.26 226.08 C 996.16 216.43 996.57 206.72 996.50 197.03 C 996.50 174.71 996.50 152.39 996.50 130.06 C 996.09 110.53 999.70 90.93 1006.93 72.79 C 1012.71 58.44 1021.46 45.33 1032.31 34.31 C 1041.79 25.05 1052.91 17.51 1064.94 11.96 Z" />
<path fill="#cca35c" opacity="1.00" d=" M 206.50 2.50 C 291.33 2.49 376.16 2.51 460.99 2.49 C 461.01 24.41 461.00 46.33 461.00 68.25 C 430.75 68.25 400.50 68.25 370.25 68.25 C 370.25 156.83 370.25 245.41 370.25 334.00 C 345.91 334.00 321.58 334.01 297.24 333.99 C 297.22 245.40 297.31 156.80 297.20 68.21 C 266.97 68.31 236.74 68.22 206.51 68.25 C 206.49 46.33 206.50 24.42 206.50 2.50 Z" />
<path fill="#cca35c" opacity="1.00" d=" M 0.00 2.59 C 24.58 2.39 49.17 2.54 73.75 2.51 C 73.75 91.09 73.75 179.66 73.76 268.24 C 127.50 268.25 181.25 268.25 234.99 268.25 C 235.01 290.16 235.00 312.08 235.00 334.00 C 156.67 333.91 78.33 334.19 0.00 333.86 L 0.00 2.59 Z" />
<path fill="#cca35c" opacity="1.00" d=" M 1388.38 2.63 C 1407.75 2.32 1427.12 2.60 1446.49 2.49 C 1489.47 112.95 1532.23 223.51 1575.21 333.98 C 1549.37 334.06 1523.53 333.92 1497.69 334.05 C 1489.38 311.54 1481.13 289.02 1472.89 266.49 C 1435.98 266.53 1399.07 266.47 1362.17 266.52 C 1354.00 289.01 1345.59 311.42 1337.51 333.94 C 1311.63 334.08 1285.75 333.96 1259.87 334.00 C 1302.69 223.54 1345.71 113.15 1388.38 2.63 M 1416.94 100.23 C 1415.05 104.33 1414.24 108.81 1412.84 113.08 C 1403.93 143.66 1394.93 174.21 1385.06 204.50 C 1406.72 204.51 1428.37 204.47 1450.03 204.52 C 1445.86 191.87 1441.80 179.19 1437.67 166.53 C 1431.38 145.31 1425.01 124.12 1418.79 102.88 C 1418.55 101.74 1417.93 100.85 1416.94 100.23 Z" />
<path fill="#cca35c" opacity="1.00" d=" M 1609.25 333.99 C 1609.26 223.49 1609.23 112.99 1609.26 2.49 C 1631.41 2.50 1653.56 2.50 1675.72 2.50 C 1688.87 30.63 1701.94 58.80 1715.08 86.94 C 1722.81 103.17 1729.54 119.85 1736.77 136.30 C 1745.70 156.87 1754.43 177.53 1763.47 198.04 C 1764.91 199.04 1765.51 197.17 1765.94 196.16 C 1777.26 168.80 1788.72 141.49 1800.10 114.16 C 1806.95 97.02 1814.98 80.40 1822.55 63.57 C 1831.82 43.22 1841.15 22.89 1850.38 2.51 C 1873.58 2.53 1896.79 2.43 1920.00 2.56 L 1920.00 333.77 C 1895.60 334.30 1871.16 333.85 1846.75 334.00 C 1846.75 282.29 1846.74 230.59 1846.76 178.89 C 1846.82 177.67 1846.65 176.42 1845.54 175.73 C 1837.87 192.68 1830.33 209.69 1822.74 226.67 C 1813.43 247.98 1802.97 268.77 1792.99 289.76 C 1774.14 289.72 1755.30 289.78 1736.46 289.73 C 1726.43 268.32 1715.87 247.16 1706.34 225.51 C 1698.88 209.02 1691.60 192.45 1684.06 175.99 C 1683.07 177.17 1682.63 178.51 1682.74 180.03 C 1682.77 231.35 1682.74 282.67 1682.75 333.99 C 1658.25 334.00 1633.75 334.00 1609.25 333.99 Z" />
<path fill="#cca35c" opacity="1.00" d=" M 861.13 120.14 C 870.35 117.22 880.65 117.20 889.87 120.15 C 890.90 120.40 891.90 120.77 892.88 121.23 C 906.17 125.95 916.92 136.93 921.84 150.10 C 926.12 161.13 926.14 173.87 921.82 184.89 C 916.96 198.11 906.14 209.00 892.89 213.80 C 891.90 214.23 890.89 214.58 889.87 214.86 C 880.65 217.80 870.35 217.78 861.13 214.86 C 860.10 214.55 859.09 214.21 858.10 213.85 C 844.89 208.93 834.02 198.14 829.18 184.89 C 824.86 173.87 824.88 161.13 829.15 150.10 C 834.06 136.87 844.87 126.06 858.10 121.15 C 859.09 120.79 860.10 120.45 861.13 120.14 Z" />
<path fill="#cca35c" opacity="1.00" d=" M 0.00 409.00 C 640.00 409.00 1280.00 409.00 1920.00 409.00 L 1920.00 423.00 C 1280.00 423.00 640.00 423.00 0.00 423.00 L 0.00 409.00 Z" />
<path fill="#cca35c" opacity="1.00" d=" M 731.05 511.98 C 740.19 499.91 756.97 496.94 771.09 499.92 C 782.10 502.28 791.51 510.39 795.81 520.76 C 792.43 522.27 789.08 523.82 785.73 525.37 C 784.32 522.54 782.85 519.68 780.64 517.40 C 769.70 504.97 746.64 506.63 738.11 521.01 C 733.55 528.46 733.45 537.50 733.49 545.96 C 733.63 554.63 733.23 563.32 733.75 571.98 C 734.28 580.40 737.58 589.23 744.67 594.27 C 751.45 599.22 760.47 599.98 768.48 598.27 C 776.72 596.28 783.00 589.50 786.02 581.79 C 789.38 583.38 792.74 585.00 796.12 586.57 C 793.90 591.78 790.92 596.80 786.51 600.46 C 780.69 605.55 773.12 608.30 765.48 609.00 L 756.37 609.00 C 747.81 608.30 739.23 605.00 733.25 598.67 C 726.27 591.72 723.35 581.66 723.00 572.03 C 722.97 560.35 723.04 548.67 722.96 536.99 C 723.03 528.12 725.49 519.02 731.05 511.98 Z" />
<path fill="#cca35c" opacity="1.00" d=" M 1021.97 505.89 C 1028.79 500.67 1037.55 498.62 1046.04 498.96 C 1055.81 498.72 1066.06 501.81 1072.94 509.01 C 1079.95 516.08 1082.86 526.27 1083.01 536.02 C 1082.99 548.03 1083.00 560.03 1083.01 572.03 C 1082.81 581.96 1079.38 592.18 1072.17 599.22 C 1066.19 605.13 1057.92 608.26 1049.64 609.00 L 1040.62 609.00 C 1032.50 608.24 1024.47 605.14 1018.62 599.36 C 1011.33 592.30 1007.84 582.04 1007.50 572.05 C 1007.47 560.39 1007.55 548.73 1007.46 537.08 C 1007.41 525.28 1012.25 513.00 1021.97 505.89 M 1039.52 509.64 C 1031.47 510.97 1024.29 516.51 1021.09 524.03 C 1017.00 533.13 1018.20 543.33 1018.00 553.01 C 1018.26 562.87 1016.95 573.13 1020.49 582.59 C 1023.33 590.67 1030.65 596.98 1039.09 598.51 C 1046.41 599.71 1054.53 599.24 1060.73 594.75 C 1068.55 589.64 1071.96 579.98 1072.27 570.99 C 1072.68 560.35 1072.51 549.69 1072.41 539.04 C 1072.41 530.10 1069.89 520.30 1062.45 514.65 C 1056.11 509.41 1047.40 508.38 1039.52 509.64 Z" />
<path fill="#cca35c" opacity="1.00" d=" M 1190.35 504.27 C 1198.54 498.95 1208.71 498.36 1218.18 499.26 C 1226.13 500.16 1233.99 503.56 1239.45 509.54 C 1246.10 516.58 1248.85 526.48 1249.01 535.98 C 1248.99 547.99 1249.00 560.00 1249.01 572.02 C 1248.81 581.93 1245.39 592.14 1238.20 599.18 C 1232.22 605.11 1223.94 608.26 1215.64 609.00 L 1206.62 609.00 C 1197.80 608.21 1189.09 604.53 1183.15 597.84 C 1176.83 590.84 1173.82 581.32 1173.50 572.01 C 1173.48 560.01 1173.52 548.02 1173.47 536.02 C 1173.66 523.62 1179.47 510.81 1190.35 504.27 M 1205.51 509.65 C 1197.72 510.94 1190.70 516.17 1187.39 523.37 C 1182.95 532.60 1184.20 543.11 1184.00 553.02 C 1184.26 562.91 1182.94 573.20 1186.52 582.67 C 1189.38 590.72 1196.68 596.99 1205.10 598.51 C 1212.41 599.71 1220.52 599.24 1226.72 594.76 C 1234.56 589.64 1237.96 579.96 1238.28 570.96 C 1238.68 560.33 1238.51 549.69 1238.41 539.06 C 1238.41 530.11 1235.90 520.31 1228.46 514.65 C 1222.11 509.41 1213.40 508.37 1205.51 509.65 Z" />
<path fill="#cca35c" opacity="1.00" d=" M 1272.71 512.68 C 1278.36 505.02 1287.46 500.20 1296.88 499.23 C 1304.61 498.54 1312.71 498.85 1319.87 502.19 C 1327.90 505.77 1334.32 512.58 1337.62 520.73 C 1334.31 522.26 1331.03 523.82 1327.74 525.34 C 1324.30 517.77 1317.62 511.39 1309.30 509.74 C 1301.74 508.39 1293.37 509.28 1287.06 513.97 C 1279.37 519.34 1275.83 528.94 1275.63 538.05 C 1275.37 548.36 1275.49 558.69 1275.56 569.01 C 1275.59 578.66 1279.05 589.03 1287.23 594.78 C 1298.68 603.17 1316.57 600.37 1324.61 588.54 C 1330.70 580.72 1330.40 570.39 1330.24 561.00 C 1322.32 560.99 1314.41 561.01 1306.49 560.99 C 1306.48 557.90 1306.49 554.83 1306.51 551.75 C 1317.92 551.75 1329.33 551.74 1340.75 551.76 C 1340.75 558.50 1340.73 565.24 1340.77 571.99 C 1340.87 582.61 1336.43 593.36 1328.37 600.37 C 1322.52 605.44 1314.96 608.18 1307.33 609.00 L 1298.37 609.00 C 1288.67 608.30 1278.96 603.93 1273.05 596.02 C 1267.16 588.39 1264.76 578.52 1264.98 569.00 C 1265.01 558.34 1265.02 547.69 1264.96 537.04 C 1264.99 528.41 1267.46 519.61 1272.71 512.68 Z" />
<path fill="#cca35c" opacity="1.00" d=" M 1475.26 513.30 C 1480.88 505.28 1490.23 500.21 1499.91 499.22 C 1507.38 498.57 1515.18 498.81 1522.16 501.88 C 1530.53 505.36 1537.16 512.35 1540.65 520.67 C 1537.35 522.25 1534.05 523.82 1530.74 525.34 C 1527.40 518.04 1521.11 511.83 1513.15 509.94 C 1504.68 508.08 1495.04 509.38 1488.38 515.29 C 1481.50 521.06 1478.68 530.30 1478.59 539.02 C 1478.45 549.32 1478.42 559.63 1478.60 569.94 C 1478.76 579.31 1482.34 589.24 1490.25 594.80 C 1501.69 603.15 1519.53 600.38 1527.57 588.59 C 1533.70 580.76 1533.40 570.41 1533.24 561.00 C 1525.32 560.99 1517.40 561.02 1509.49 560.99 C 1509.48 557.90 1509.49 554.83 1509.51 551.75 C 1520.92 551.75 1532.33 551.74 1543.75 551.75 C 1543.75 558.51 1543.73 565.27 1543.77 572.04 C 1543.86 582.64 1539.41 593.37 1531.37 600.38 C 1525.52 605.44 1517.97 608.18 1510.34 609.00 L 1501.34 609.00 C 1492.54 608.33 1483.75 604.73 1477.78 598.11 C 1471.36 591.05 1468.33 581.44 1468.00 572.03 C 1467.96 560.69 1468.06 549.34 1467.96 538.00 C 1467.83 529.30 1470.12 520.39 1475.26 513.30 Z" />
<path fill="#cca35c" opacity="1.00" d=" M 1671.47 502.54 C 1678.75 498.88 1687.13 498.59 1695.11 499.15 C 1703.44 499.87 1711.74 503.29 1717.45 509.54 C 1724.10 516.59 1726.85 526.49 1727.01 536.00 C 1726.99 547.99 1727.00 559.98 1727.01 571.97 C 1726.82 581.92 1723.39 592.17 1716.16 599.23 C 1710.18 605.13 1701.92 608.26 1693.65 609.00 L 1684.62 609.00 C 1672.09 608.16 1660.12 600.41 1655.24 588.69 C 1649.95 577.51 1651.82 564.92 1651.50 552.99 C 1651.84 543.38 1650.34 533.48 1653.40 524.16 C 1656.09 514.87 1662.69 506.71 1671.47 502.54 M 1683.48 509.65 C 1675.69 510.96 1668.67 516.20 1665.38 523.40 C 1660.96 532.61 1662.20 543.08 1662.00 552.96 C 1662.26 562.87 1660.93 573.19 1664.52 582.69 C 1667.38 590.71 1674.67 596.97 1683.07 598.50 C 1690.38 599.71 1698.50 599.25 1704.71 594.76 C 1712.55 589.65 1715.96 579.98 1716.27 570.98 C 1716.68 560.36 1716.50 549.71 1716.41 539.08 C 1716.42 530.09 1713.88 520.24 1706.37 514.58 C 1700.02 509.39 1691.34 508.38 1683.48 509.65 Z" />
<path fill="#cca35c" opacity="1.00" d=" M 4.00 499.75 C 7.50 499.75 11.00 499.74 14.50 499.75 C 14.51 532.59 14.48 565.42 14.51 598.25 C 33.42 598.25 52.33 598.25 71.24 598.25 C 71.25 601.49 71.25 604.74 71.25 608.00 C 48.83 608.00 26.42 608.00 4.00 608.00 C 4.00 571.92 4.00 535.83 4.00 499.75 Z" />
<path fill="#cca35c" opacity="1.00" d=" M 88.00 499.75 C 110.42 499.75 132.83 499.74 155.24 499.75 C 155.25 503.00 155.25 506.24 155.25 509.49 C 136.33 509.52 117.42 509.49 98.50 509.50 C 98.50 522.59 98.49 535.67 98.51 548.75 C 114.59 548.75 130.67 548.74 146.75 548.76 C 146.75 551.83 146.75 554.91 146.75 557.99 C 130.67 558.02 114.58 557.98 98.49 558.01 C 98.51 571.42 98.48 584.84 98.51 598.25 C 117.42 598.25 136.33 598.25 155.24 598.25 C 155.25 601.49 155.25 604.74 155.25 608.00 C 132.83 608.00 110.42 608.00 88.00 608.00 C 88.00 571.92 88.00 535.83 88.00 499.75 Z" />
<path fill="#cca35c" opacity="1.00" d=" M 160.40 608.00 C 173.38 571.85 186.69 535.82 199.90 499.75 C 203.21 499.75 206.52 499.75 209.84 499.73 C 223.11 535.81 236.25 571.93 249.55 608.00 C 245.70 608.00 241.85 608.00 238.00 608.00 C 234.87 599.54 231.82 591.05 228.95 582.50 C 212.91 582.50 196.87 582.50 180.82 582.50 C 177.72 590.96 174.67 599.45 171.80 608.00 C 168.00 608.00 164.20 608.00 160.40 608.00 M 183.78 573.25 C 197.81 573.24 211.84 573.27 225.86 573.23 C 218.86 553.15 211.96 533.03 204.77 513.01 C 198.26 533.25 190.70 553.14 183.78 573.25 Z" />
<path fill="#cca35c" opacity="1.00" d=" M 263.00 499.75 C 276.00 499.76 289.00 499.72 302.00 499.77 C 313.19 500.28 325.10 504.74 331.31 514.58 C 337.56 523.39 337.89 534.61 338.01 545.01 C 337.85 556.00 338.52 567.08 336.90 578.00 C 335.50 587.56 330.28 596.76 321.96 601.90 C 313.93 606.81 304.28 608.30 295.00 608.00 C 284.33 607.99 273.67 608.00 263.00 608.00 C 263.00 571.92 263.00 535.83 263.00 499.75 M 273.50 509.50 C 273.50 539.08 273.50 568.66 273.51 598.25 C 283.01 598.13 292.54 598.56 302.03 597.88 C 310.05 597.34 318.36 593.60 322.48 586.40 C 328.30 576.66 327.33 564.84 327.50 553.94 C 327.33 542.86 328.28 530.80 322.17 520.97 C 318.27 514.21 310.55 510.75 303.04 509.99 C 293.22 509.11 283.35 509.64 273.50 509.50 Z" />
<path fill="#cca35c" opacity="1.00" d=" M 358.00 499.75 C 380.42 499.75 402.83 499.74 425.25 499.76 C 425.25 503.00 425.25 506.24 425.25 509.49 C 406.33 509.51 387.42 509.49 368.50 509.50 C 368.50 522.59 368.49 535.67 368.51 548.76 C 384.59 548.74 400.67 548.75 416.75 548.76 C 416.75 551.83 416.75 554.91 416.75 557.99 C 400.67 558.02 384.58 557.98 368.49 558.01 C 368.51 571.42 368.48 584.84 368.51 598.25 C 387.40 598.21 406.29 598.33 425.18 598.19 C 425.29 601.45 425.25 604.72 425.25 608.00 C 402.83 608.00 380.42 608.00 358.00 608.00 C 358.00 571.92 358.00 535.83 358.00 499.75 Z" />
<path fill="#cca35c" opacity="1.00" d=" M 442.24 607.99 C 442.31 571.89 442.14 535.79 442.33 499.70 C 457.56 499.82 472.79 499.71 488.02 499.75 C 495.41 500.00 502.78 502.85 508.24 507.89 C 519.66 518.73 519.41 539.23 507.91 549.93 C 503.48 554.19 497.75 556.90 491.84 558.38 C 499.49 574.92 507.14 591.46 514.80 607.99 C 510.63 607.96 506.46 608.12 502.30 607.87 C 495.16 591.61 487.70 575.48 480.48 559.25 C 471.24 559.25 462.00 559.25 452.76 559.25 C 452.75 575.50 452.75 591.74 452.76 607.99 C 449.25 608.00 445.75 608.00 442.24 607.99 M 452.75 509.00 C 452.75 522.67 452.75 536.33 452.75 550.00 C 463.52 549.87 474.30 550.29 485.06 549.73 C 493.43 549.29 502.18 544.16 504.45 535.69 C 506.09 529.09 505.75 521.26 501.04 515.93 C 496.59 510.92 489.62 509.18 483.16 509.12 C 473.02 508.85 462.89 509.07 452.75 509.00 Z" />
<path fill="#cca35c" opacity="1.00" d=" M 556.76 499.76 C 581.33 499.74 605.91 499.75 630.49 499.75 C 630.49 502.79 630.46 505.83 630.60 508.87 C 620.07 509.17 609.53 508.91 599.00 509.00 C 599.00 542.00 599.00 575.00 599.00 608.00 C 595.49 608.00 591.99 608.00 588.49 607.98 C 588.51 574.99 588.50 542.00 588.50 509.00 C 577.91 508.99 567.33 509.00 556.75 509.00 C 556.74 505.91 556.74 502.83 556.76 499.76 Z" />
<path fill="#cca35c" opacity="1.00" d=" M 643.00 499.75 C 665.42 499.75 687.83 499.74 710.24 499.75 C 710.25 503.00 710.25 506.24 710.25 509.49 C 691.33 509.52 672.42 509.49 653.50 509.50 C 653.49 522.58 653.51 535.66 653.49 548.73 C 669.59 548.81 685.69 548.67 701.79 548.80 C 701.72 551.86 701.74 554.93 701.76 557.99 C 685.67 558.01 669.59 558.00 653.51 558.00 C 653.50 571.41 653.49 584.83 653.51 598.25 C 672.42 598.25 691.33 598.25 710.24 598.25 C 710.25 601.49 710.25 604.74 710.25 608.00 C 687.83 608.00 665.42 608.00 643.00 608.00 C 643.00 571.92 643.00 535.83 643.00 499.75 Z" />
<path fill="#cca35c" opacity="1.00" d=" M 810.00 499.75 C 813.49 499.75 816.99 499.75 820.49 499.75 C 820.56 516.10 820.40 532.46 820.57 548.81 C 838.21 548.66 855.86 548.81 873.51 548.74 C 873.50 532.41 873.49 516.08 873.51 499.75 C 877.00 499.75 880.50 499.75 884.00 499.75 C 884.00 535.83 884.00 571.92 884.00 608.00 C 880.49 608.00 876.99 608.00 873.49 607.99 C 873.50 591.32 873.50 574.66 873.50 558.00 C 855.83 558.00 838.17 558.00 820.50 558.00 C 820.50 574.66 820.49 591.32 820.51 607.98 C 817.00 608.00 813.50 608.00 810.00 608.00 C 810.00 571.92 810.00 535.83 810.00 499.75 Z" />
<path fill="#cca35c" opacity="1.00" d=" M 908.25 499.76 C 911.80 499.74 915.37 499.74 918.93 499.75 C 938.73 529.87 958.63 559.92 977.78 590.46 C 977.71 560.22 977.77 529.99 977.76 499.76 C 981.25 499.74 984.74 499.74 988.24 499.76 C 988.25 535.84 988.25 571.92 988.25 608.00 C 984.60 607.96 980.96 608.14 977.33 607.84 C 957.86 577.80 937.84 548.10 918.77 517.80 C 918.73 547.86 918.75 577.93 918.76 607.99 C 915.25 608.00 911.74 608.00 908.24 607.99 C 908.25 571.91 908.25 535.84 908.25 499.76 Z" />
<path fill="#cca35c" opacity="1.00" d=" M 1103.00 499.75 C 1106.49 499.75 1109.99 499.74 1113.50 499.75 C 1113.51 532.59 1113.48 565.42 1113.51 598.25 C 1132.42 598.25 1151.33 598.25 1170.24 598.25 C 1170.24 601.49 1170.24 604.74 1170.25 608.00 C 1147.83 608.00 1125.42 608.00 1103.00 608.00 C 1103.00 571.92 1103.00 535.83 1103.00 499.75 Z" />
<path fill="#cca35c" opacity="1.00" d=" M 1349.65 499.77 C 1353.42 499.74 1357.20 499.75 1360.98 499.75 C 1365.98 509.78 1370.86 519.88 1375.94 529.87 C 1379.85 537.58 1383.04 545.69 1387.29 553.21 C 1392.38 543.16 1396.70 532.73 1402.07 522.82 C 1406.03 515.19 1409.60 507.38 1413.50 499.72 C 1417.15 499.76 1420.81 499.75 1424.49 499.74 C 1413.71 521.13 1402.55 542.35 1392.08 563.88 C 1391.88 578.58 1392.06 593.29 1392.00 608.00 C 1388.74 608.00 1385.49 608.00 1382.24 607.99 C 1382.27 594.33 1382.21 580.68 1382.27 567.02 C 1382.22 565.46 1382.41 563.80 1381.59 562.41 C 1370.95 541.53 1360.17 520.71 1349.65 499.77 Z" />
<path fill="#cca35c" opacity="1.00" d=" M 1564.25 499.76 C 1579.17 499.73 1594.09 499.77 1609.01 499.74 C 1616.47 499.74 1623.94 502.43 1629.60 507.30 C 1641.64 517.94 1641.63 538.99 1629.95 549.89 C 1625.51 554.17 1619.77 556.90 1613.84 558.38 C 1621.49 574.92 1629.14 591.46 1636.80 607.99 C 1632.63 607.96 1628.47 608.11 1624.32 607.89 C 1617.15 591.63 1609.71 575.49 1602.49 559.25 C 1593.24 559.24 1584.00 559.25 1574.76 559.25 C 1574.74 575.50 1574.75 591.74 1574.76 607.99 C 1571.24 608.00 1567.74 608.00 1564.24 607.99 C 1564.25 571.91 1564.25 535.84 1564.25 499.76 M 1574.75 509.00 C 1574.75 522.67 1574.75 536.33 1574.75 550.00 C 1585.55 549.87 1596.36 550.30 1607.15 549.73 C 1615.52 549.26 1624.25 544.08 1626.48 535.60 C 1628.07 529.04 1627.73 521.29 1623.09 515.99 C 1618.64 510.94 1611.64 509.18 1605.15 509.11 C 1595.02 508.85 1584.88 509.07 1574.75 509.00 Z" />
<path fill="#cca35c" opacity="1.00" d=" M 1744.76 499.76 C 1748.24 499.74 1751.74 499.74 1755.24 499.76 C 1755.29 522.18 1755.18 544.60 1755.30 567.02 C 1755.32 575.44 1757.50 584.28 1763.39 590.58 C 1773.50 602.09 1794.04 601.61 1803.48 589.50 C 1808.65 583.25 1809.67 574.85 1809.70 567.02 C 1809.82 544.60 1809.71 522.18 1809.76 499.76 C 1813.24 499.74 1816.74 499.74 1820.24 499.76 C 1820.26 524.16 1820.24 548.56 1820.25 572.96 C 1820.10 582.90 1816.20 592.96 1808.79 599.72 C 1802.75 605.24 1794.73 608.26 1786.64 609.00 L 1777.81 609.00 C 1767.79 608.08 1757.97 603.18 1752.05 594.91 C 1747.15 587.99 1744.67 579.47 1744.73 571.02 C 1744.78 547.27 1744.73 523.51 1744.76 499.76 Z" />
<path fill="#cca35c" opacity="1.00" d=" M 1842.22 499.79 C 1856.13 499.70 1870.04 499.77 1883.95 499.75 C 1893.28 500.13 1903.10 503.35 1909.23 510.73 C 1919.40 523.15 1918.31 543.53 1906.42 554.48 C 1900.67 559.84 1892.88 563.03 1885.01 563.01 C 1874.25 562.99 1863.50 563.00 1852.75 563.00 C 1852.75 578.00 1852.74 592.99 1852.76 607.99 C 1849.24 608.00 1845.74 608.00 1842.25 607.99 C 1842.23 571.93 1842.29 535.86 1842.22 499.79 M 1852.75 509.51 C 1852.75 524.09 1852.74 538.67 1852.76 553.24 C 1862.46 553.18 1872.17 553.39 1881.88 553.14 C 1886.60 553.13 1891.42 552.12 1895.38 549.42 C 1907.82 541.69 1907.84 520.19 1894.85 513.00 C 1889.83 509.92 1883.80 509.57 1878.08 509.50 C 1869.63 509.50 1861.19 509.49 1852.75 509.51 Z" />
</g>
</svg>
