<?xml version="1.0" encoding="UTF-8" ?>
<!DOCTYPE svg PUBLIC "-//W3C//DTD SVG 1.1//EN" "http://www.w3.org/Graphics/SVG/1.1/DTD/svg11.dtd">
<svg width="256pt" height="256pt" viewBox="0 0 256 256" version="1.1" xmlns="http://www.w3.org/2000/svg">
<g id="#cba35dff">
<path fill="#cba35d" opacity="1.00" d=" M 127.27 0.00 L 251.30 0.00 C 253.62 0.33 255.31 1.98 256.00 4.18 L 256.00 251.27 C 255.66 253.63 254.00 255.37 251.73 256.00 L 99.92 256.00 C 90.99 256.17 83.74 250.50 77.62 244.67 C 75.67 251.09 69.74 255.82 62.98 256.00 L 14.81 256.00 C 6.96 255.96 0.10 249.16 0.00 241.31 L 0.00 159.16 C 0.12 151.27 7.11 144.35 15.04 144.54 C 31.01 144.48 46.99 144.45 62.96 144.55 C 67.96 144.46 72.39 147.23 75.46 150.99 C 82.51 143.92 89.58 136.88 96.63 129.81 C 88.96 101.24 81.34 72.66 73.65 44.10 C 73.00 41.47 71.98 38.87 72.00 36.14 C 72.23 33.46 74.83 32.08 77.17 31.57 C 92.45 27.50 107.72 23.40 123.00 19.31 C 123.12 14.28 122.73 9.23 123.17 4.21 C 123.34 1.97 125.34 0.67 127.27 0.00 M 133.00 10.00 C 133.00 56.67 133.00 103.33 133.00 150.00 C 136.26 150.00 139.52 150.00 142.78 150.00 C 142.78 117.32 142.79 84.65 142.78 51.97 C 142.61 49.61 143.36 46.82 145.82 45.96 C 148.95 45.13 152.44 45.24 155.14 43.21 C 159.02 40.82 161.05 36.35 161.30 31.91 C 161.31 28.99 164.05 26.75 166.90 27.02 C 181.27 26.95 195.63 27.04 210.00 26.98 C 211.98 27.06 214.26 26.78 215.89 28.17 C 217.74 29.49 217.63 31.96 218.02 33.96 C 218.64 40.02 224.09 44.96 230.11 45.35 C 232.86 45.38 236.07 46.93 236.12 50.07 C 236.39 55.69 236.12 61.34 236.24 66.97 C 236.15 69.47 236.64 72.62 234.33 74.32 C 231.48 76.89 226.37 74.67 226.32 70.85 C 226.05 65.55 226.30 60.24 226.22 54.94 C 217.50 52.78 210.40 45.76 208.32 37.00 C 195.77 37.00 183.23 37.00 170.68 37.00 C 168.54 45.75 161.51 52.81 152.75 54.93 C 152.75 86.62 152.75 118.31 152.75 150.00 C 161.85 150.02 170.96 149.97 180.06 150.02 C 171.08 145.89 164.56 136.14 165.73 126.08 C 166.33 116.68 173.16 108.11 182.14 105.32 C 190.11 102.62 199.42 104.67 205.57 110.39 C 211.76 115.93 214.64 124.88 212.85 132.99 C 211.35 140.48 205.75 146.79 198.94 150.02 C 202.66 150.04 206.42 149.77 210.12 150.36 C 216.79 151.55 222.38 157.15 223.58 163.82 C 224.32 167.25 223.60 170.75 222.47 173.99 C 223.40 174.09 225.28 174.30 226.22 174.40 C 226.24 155.61 226.18 136.81 226.24 118.02 C 226.13 115.65 227.63 113.24 230.02 112.72 C 233.17 111.77 236.50 114.67 236.18 117.91 C 236.34 138.86 236.05 159.83 236.32 180.78 C 238.24 184.53 240.10 188.64 239.31 192.97 C 238.72 199.75 233.43 205.30 227.14 207.38 C 229.68 213.14 229.40 220.30 225.32 225.30 C 221.89 229.99 216.03 232.18 210.35 232.10 C 212.23 236.53 212.15 241.56 210.35 246.00 C 222.24 245.99 234.12 246.00 246.00 246.00 C 246.00 167.33 246.00 88.67 246.00 10.00 C 208.33 10.00 170.67 10.00 133.00 10.00 M 83.04 40.37 C 90.67 68.93 98.32 97.48 105.98 126.03 C 108.74 133.85 110.33 142.00 112.49 149.99 C 115.84 150.00 119.20 150.00 122.56 150.00 C 116.16 126.30 109.75 102.61 103.35 78.91 C 102.53 76.60 102.98 73.55 105.35 72.36 C 108.41 70.92 111.84 69.73 113.81 66.77 C 116.82 63.13 116.77 58.21 116.08 53.79 C 115.88 49.98 120.05 48.84 122.99 48.14 C 123.01 41.98 123.00 35.82 123.00 29.66 C 109.68 33.22 96.36 36.81 83.04 40.37 M 113.88 79.52 C 116.85 90.78 120.05 101.99 122.90 113.29 C 123.12 99.24 122.95 85.18 123.00 71.13 C 120.58 74.55 117.47 77.37 113.88 79.52 M 185.50 114.69 C 179.09 116.53 174.63 123.37 175.74 129.98 C 176.62 137.20 183.89 142.85 191.11 141.80 C 198.62 141.10 204.55 133.46 203.26 126.00 C 202.29 117.90 193.28 112.06 185.50 114.69 M 78.03 162.48 C 77.96 185.56 78.02 208.64 78.00 231.72 C 82.37 235.38 86.44 239.42 91.02 242.83 C 94.42 245.47 98.84 246.06 103.03 246.01 C 133.38 245.96 163.74 246.04 194.10 245.98 C 199.02 246.48 203.31 241.12 201.29 236.48 C 200.19 233.57 197.10 231.87 194.06 232.02 C 181.65 231.92 169.23 232.09 156.82 231.95 C 154.08 232.10 151.59 229.77 151.61 227.02 C 151.56 224.22 154.11 221.87 156.88 222.04 C 174.95 221.92 193.02 222.07 211.09 221.98 C 215.04 222.29 218.93 219.07 218.81 215.00 C 218.94 210.94 215.06 207.72 211.12 208.02 C 193.37 207.96 175.62 208.03 157.87 208.00 C 155.54 208.16 152.88 207.28 152.01 204.90 C 150.50 201.70 153.36 197.76 156.84 198.05 C 178.64 197.90 200.44 198.10 222.23 197.96 C 225.33 198.04 228.41 195.99 229.22 192.94 C 230.72 188.52 226.73 183.73 222.16 184.04 C 200.74 183.94 179.32 184.03 157.90 184.00 C 155.85 184.07 153.48 183.59 152.40 181.64 C 150.13 178.44 153.04 173.68 156.89 174.04 C 173.27 173.92 189.65 174.06 206.04 173.98 C 209.63 174.27 213.30 171.72 213.76 168.06 C 214.63 163.63 210.40 159.56 206.03 160.02 C 173.99 159.98 141.94 160.01 109.90 160.00 C 107.37 160.26 104.54 159.01 103.88 156.37 C 102.38 151.21 101.23 145.95 99.84 140.76 C 92.56 147.99 85.34 155.28 78.03 162.48 M 10.04 159.86 C 9.96 186.59 10.01 213.32 10.01 240.05 C 9.57 243.43 12.56 246.42 15.94 245.99 C 31.67 245.97 47.40 246.09 63.12 245.93 C 66.15 245.95 68.30 242.97 67.99 240.08 C 67.99 213.33 68.05 186.58 67.96 159.83 C 68.14 157.06 65.80 154.50 63.01 154.57 C 56.67 154.38 50.34 154.56 44.00 154.50 C 43.99 173.36 44.02 192.21 43.99 211.07 C 44.22 213.67 42.67 216.54 39.92 216.95 C 36.95 217.64 33.97 215.04 34.06 212.04 C 33.91 192.86 34.05 173.68 34.00 154.50 C 27.68 154.56 21.35 154.39 15.03 154.56 C 12.20 154.48 9.85 157.07 10.04 159.86 Z" />
<path fill="#cba35d" opacity="1.00" d=" M 229.40 90.39 C 232.83 88.85 236.94 92.26 236.08 95.91 C 235.58 99.49 230.79 101.25 228.11 98.83 C 225.20 96.65 225.99 91.62 229.40 90.39 Z" />
<path fill="#cba35d" opacity="1.00" d=" M 38.18 226.12 C 41.97 225.29 45.34 229.81 43.42 233.19 C 41.99 236.50 36.88 236.89 34.96 233.85 C 32.81 231.08 34.71 226.56 38.18 226.12 Z" />
</g>
</svg>
