<?xml version="1.0" encoding="UTF-8" ?>
<!DOCTYPE svg PUBLIC "-//W3C//DTD SVG 1.1//EN" "http://www.w3.org/Graphics/SVG/1.1/DTD/svg11.dtd">
<svg width="64pt" height="64pt" viewBox="0 0 64 64" version="1.1" xmlns="http://www.w3.org/2000/svg">
<g id="#ffffffff">
<path fill="#ffffff" opacity="1.00" d=" M 8.38 3.40 C 10.04 1.53 13.32 -1.61 15.39 1.46 C 18.27 6.84 21.78 12.04 23.50 17.94 C 22.04 20.16 20.27 22.15 18.34 23.98 C 20.00 29.52 23.96 33.88 28.02 37.81 C 31.51 41.12 35.30 44.38 40.04 45.67 C 42.64 43.40 45.31 38.59 49.39 40.73 C 54.26 43.80 59.87 45.99 64.00 50.05 L 64.00 51.36 C 62.75 54.16 60.11 55.93 58.08 58.12 C 55.71 60.33 53.65 63.26 50.29 64.00 L 49.56 64.00 C 41.50 63.69 34.27 59.73 27.63 55.49 C 20.73 50.77 15.12 44.49 9.81 38.10 C 4.91 31.41 0.61 23.81 0.00 15.37 L 0.00 13.86 C 1.04 9.26 5.54 6.82 8.38 3.40 Z" />
</g>
</svg>
