<?xml version="1.0" encoding="UTF-8" ?>
<!DOCTYPE svg PUBLIC "-//W3C//DTD SVG 1.1//EN" "http://www.w3.org/Graphics/SVG/1.1/DTD/svg11.dtd">
<svg width="256pt" height="256pt" viewBox="0 0 256 256" version="1.1" xmlns="http://www.w3.org/2000/svg">
<g id="#cba35dff">
<path fill="#cba35d" opacity="1.00" d=" M 105.69 0.00 L 109.29 0.00 C 133.93 0.45 158.31 9.87 176.60 26.42 C 194.63 42.48 206.82 65.01 210.03 88.97 C 214.35 117.63 205.46 147.66 186.91 169.81 C 207.20 190.97 227.57 212.05 247.82 233.25 C 252.17 237.64 252.77 245.11 249.18 250.15 C 246.69 253.66 242.51 255.59 238.30 256.00 L 237.47 256.00 C 233.75 255.72 230.27 253.99 227.77 251.23 C 207.50 230.17 187.26 209.09 166.99 188.03 C 158.62 193.74 149.53 198.46 139.88 201.59 C 117.48 208.95 92.55 208.25 70.58 199.70 C 49.37 191.54 31.06 176.13 19.35 156.65 C 6.75 136.07 1.98 110.93 5.81 87.13 C 9.36 63.76 21.51 41.90 39.17 26.23 C 57.29 9.92 81.34 0.61 105.69 0.00 M 97.56 27.70 C 77.47 30.31 58.74 41.43 46.66 57.66 C 35.96 71.85 30.50 89.88 31.57 107.62 C 32.46 125.44 40.00 142.80 52.28 155.72 C 62.60 166.66 76.18 174.55 90.89 177.79 C 109.98 182.22 130.75 178.86 147.43 168.57 C 161.37 160.09 172.48 147.07 178.57 131.94 C 186.08 113.57 185.96 92.22 178.22 73.94 C 172.02 59.01 160.89 46.22 147.03 37.91 C 132.35 28.98 114.57 25.38 97.56 27.70 Z" />
</g>
</svg>
