<?xml version="1.0" encoding="UTF-8" ?>
<!DOCTYPE svg PUBLIC "-//W3C//DTD SVG 1.1//EN" "http://www.w3.org/Graphics/SVG/1.1/DTD/svg11.dtd">
<svg width="256pt" height="256pt" viewBox="0 0 256 256" version="1.1" xmlns="http://www.w3.org/2000/svg">
<g id="#cba35dff">
<path fill="#cba35d" opacity="1.00" d=" M 127.67 0.00 L 128.17 0.00 C 132.23 1.10 135.69 3.57 139.38 5.46 C 146.39 9.16 153.17 13.30 160.42 16.52 C 170.81 21.27 181.04 26.41 191.84 30.22 C 204.40 35.47 217.44 39.39 230.45 43.34 C 232.52 44.08 235.06 44.50 236.30 46.54 C 237.46 48.48 237.06 50.87 237.18 53.04 C 237.03 72.37 237.37 91.70 236.99 111.03 C 236.07 144.39 224.24 177.27 203.71 203.55 C 188.40 223.15 168.70 239.46 146.29 250.30 C 140.62 252.91 134.73 255.30 128.47 256.00 L 127.59 256.00 C 117.65 254.73 108.59 250.00 99.96 245.18 C 63.56 224.15 35.47 188.80 24.51 148.09 C 20.65 133.73 18.85 118.85 18.86 103.99 C 18.85 85.97 18.81 67.94 18.88 49.93 C 18.63 47.21 20.53 44.73 23.16 44.14 C 36.22 39.93 49.51 36.39 62.18 31.06 C 74.85 26.63 86.85 20.60 99.02 14.98 C 108.73 10.30 117.70 4.09 127.67 0.00 M 103.77 24.69 C 91.60 30.32 79.56 36.28 66.92 40.80 C 54.79 45.92 42.09 49.40 29.61 53.53 C 29.65 70.35 29.60 87.18 29.64 104.00 C 29.71 118.30 31.19 132.72 35.41 146.42 C 46.15 186.34 75.10 220.45 111.68 239.30 C 116.89 241.78 122.21 244.53 128.01 245.16 C 133.08 244.67 137.74 242.34 142.33 240.29 C 180.07 221.60 209.93 186.68 220.78 145.81 C 225.35 130.69 226.54 114.77 226.38 99.04 C 226.33 83.84 226.45 68.63 226.32 53.43 C 217.99 50.85 209.70 48.15 201.41 45.46 C 193.00 42.28 184.63 38.98 176.25 35.68 C 167.96 31.92 159.70 28.09 151.45 24.22 C 143.61 20.07 135.82 15.81 128.00 11.62 C 119.91 15.96 111.89 20.42 103.77 24.69 Z" />
<path fill="#cba35d" opacity="1.00" d=" M 88.40 43.61 C 92.31 41.62 97.13 45.86 95.69 49.99 C 94.77 53.81 89.37 55.12 86.79 52.19 C 83.99 49.82 85.03 44.88 88.40 43.61 Z" />
<path fill="#cba35d" opacity="1.00" d=" M 70.88 50.72 C 72.79 50.10 74.87 49.03 76.89 49.80 C 79.75 50.64 81.46 54.14 80.18 56.89 C 79.44 58.97 77.30 59.88 75.37 60.55 C 67.23 63.42 59.12 66.39 50.97 69.24 C 50.80 75.11 51.16 81.00 50.80 86.86 C 50.51 90.96 44.87 93.05 42.00 90.09 C 39.85 88.38 40.19 85.37 40.14 82.93 C 40.24 76.97 40.02 71.01 40.23 65.05 C 40.25 62.36 42.59 60.45 45.03 59.86 C 53.71 57.00 62.36 54.06 70.88 50.72 Z" />
<path fill="#cba35d" opacity="1.00" d=" M 164.62 82.57 C 169.71 77.26 178.25 75.80 184.81 79.14 C 191.33 82.26 195.40 89.72 194.42 96.90 C 193.98 101.32 191.55 105.27 188.38 108.28 C 166.51 130.09 144.75 152.00 122.83 173.76 C 116.57 180.09 105.41 180.27 98.98 174.10 C 88.34 163.69 77.89 153.07 67.34 142.58 C 63.89 139.29 61.52 134.76 61.46 129.93 C 61.12 122.56 66.03 115.34 73.02 112.97 C 79.12 110.67 86.40 112.27 91.04 116.83 C 97.68 123.29 104.12 129.95 110.75 136.43 C 128.69 118.46 146.63 100.49 164.62 82.57 M 174.50 88.66 C 173.21 89.23 172.18 90.21 171.18 91.16 C 152.51 109.85 133.84 128.53 115.16 147.20 C 113.16 149.58 109.30 150.20 107.01 147.86 C 99.22 140.32 91.70 132.50 83.94 124.92 C 81.39 122.08 76.43 121.96 73.96 124.96 C 71.41 127.60 71.85 132.12 74.53 134.50 C 84.47 144.55 94.53 154.49 104.48 164.54 C 106.19 166.30 108.31 167.99 110.92 167.89 C 114.34 167.76 116.52 164.85 118.78 162.68 C 139.42 142.00 160.08 121.33 180.75 100.67 C 182.57 98.91 184.23 96.53 183.69 93.86 C 183.22 89.70 178.33 86.87 174.50 88.66 Z" />
<path fill="#cba35d" opacity="1.00" d=" M 187.13 173.25 C 190.37 171.68 194.57 174.41 194.55 177.98 C 194.62 180.53 192.65 182.44 191.33 184.41 C 183.50 195.65 174.05 205.76 163.37 214.34 C 161.45 215.80 159.60 217.99 156.97 217.89 C 153.96 217.87 151.34 214.98 151.76 211.97 C 151.90 209.57 154.02 208.13 155.67 206.70 C 165.34 199.09 173.99 190.12 181.16 180.12 C 183.06 177.78 184.40 174.74 187.13 173.25 Z" />
<path fill="#cba35d" opacity="1.00" d=" M 141.40 216.70 C 144.61 214.74 149.25 217.26 149.31 221.02 C 149.84 225.52 143.76 228.62 140.39 225.66 C 137.20 223.46 137.96 218.24 141.40 216.70 Z" />
</g>
</svg>
