<?xml version="1.0" encoding="UTF-8" ?>
<!DOCTYPE svg PUBLIC "-//W3C//DTD SVG 1.1//EN" "http://www.w3.org/Graphics/SVG/1.1/DTD/svg11.dtd">
<svg width="256pt" height="256pt" viewBox="0 0 256 256" version="1.1" xmlns="http://www.w3.org/2000/svg">
<g id="#cba35dff">
<path fill="#cba35d" opacity="1.00" d=" M 19.13 50.03 C 20.99 47.68 24.12 47.00 26.98 47.03 C 77.32 47.04 127.68 47.02 178.02 47.04 C 181.62 46.89 185.49 48.61 186.83 52.14 C 188.11 55.99 187.47 60.14 187.60 64.12 C 197.75 64.18 207.90 64.01 218.05 64.18 C 223.87 64.24 229.51 67.54 232.35 72.63 C 234.99 77.16 235.06 82.70 234.01 87.71 C 233.36 88.06 232.07 88.77 231.43 89.13 C 233.65 97.94 235.83 106.77 238.08 115.58 C 247.96 117.29 255.99 126.16 256.00 136.31 L 256.00 180.13 C 255.20 181.26 254.56 182.93 252.98 183.08 C 248.34 183.62 243.66 183.20 239.00 183.31 C 238.67 190.47 235.92 197.65 230.40 202.41 C 222.14 210.09 208.65 211.01 199.39 204.59 C 192.28 199.96 188.32 191.66 188.03 183.31 C 157.99 183.31 127.95 183.32 97.91 183.31 C 97.57 190.67 94.65 198.06 88.86 202.82 C 80.40 210.28 66.89 210.89 57.79 204.24 C 50.96 199.56 47.25 191.45 46.93 183.31 C 39.62 183.21 32.31 183.52 25.01 183.19 C 21.48 183.08 18.19 180.43 17.47 176.96 C 16.81 173.41 17.13 169.79 17.09 166.21 C 12.41 166.11 7.69 166.52 3.03 165.99 C 1.50 165.86 0.87 164.19 0.00 163.16 L 0.00 161.49 C 0.75 159.81 2.02 158.11 4.08 158.27 C 15.72 158.04 27.36 158.29 39.01 158.15 C 41.16 158.32 43.88 157.75 45.48 159.60 C 47.59 161.75 46.07 165.93 43.01 166.06 C 37.06 166.48 31.08 166.09 25.12 166.22 C 25.12 169.24 25.12 172.27 25.13 175.29 C 32.86 175.33 40.60 175.30 48.33 175.31 C 50.26 170.91 52.82 166.64 56.73 163.72 C 64.24 157.61 75.37 156.50 83.93 161.03 C 89.83 163.93 94.06 169.33 96.54 175.32 C 124.21 175.30 151.89 175.31 179.56 175.31 C 179.66 165.20 179.38 155.08 179.67 144.97 C 179.55 142.08 183.15 140.12 185.55 141.66 C 187.13 142.46 187.58 144.31 187.57 145.95 C 187.77 155.98 187.32 166.02 187.79 176.05 C 190.90 173.87 191.69 169.88 194.22 167.18 C 201.27 158.62 214.21 155.74 224.20 160.62 C 230.48 163.44 235.07 169.02 237.62 175.31 C 241.07 175.31 244.52 175.31 247.97 175.31 C 247.97 169.45 247.96 163.59 247.98 157.73 C 243.38 157.84 238.26 157.67 234.88 154.07 C 229.99 149.75 230.73 142.78 230.94 136.92 C 230.88 135.08 231.98 133.01 233.95 132.75 C 238.44 132.23 242.98 132.65 247.49 132.50 C 245.27 127.46 240.54 123.40 234.80 123.53 C 219.11 123.37 203.42 123.52 187.72 123.47 C 187.34 126.11 188.37 129.87 185.53 131.46 C 182.56 133.23 178.95 130.26 179.59 127.00 C 179.51 103.03 179.60 79.05 179.55 55.07 C 128.08 55.05 76.61 55.05 25.13 55.07 C 25.09 79.05 25.18 103.03 25.10 127.01 C 25.40 129.43 23.70 132.11 21.05 131.95 C 18.48 132.04 16.87 129.47 17.11 127.10 C 17.04 104.08 17.14 81.06 17.07 58.04 C 17.09 55.27 17.19 52.22 19.13 50.03 M 187.60 72.15 C 187.59 75.18 187.59 78.21 187.60 81.25 C 200.65 81.24 213.71 81.28 226.76 81.23 C 226.40 76.59 222.85 72.27 217.97 72.24 C 207.85 72.02 197.72 72.23 187.60 72.15 M 187.61 89.23 C 187.58 97.97 187.60 106.70 187.60 115.44 C 201.65 115.44 215.70 115.44 229.75 115.44 C 227.57 106.71 225.40 97.98 223.22 89.25 C 211.35 89.24 199.48 89.27 187.61 89.23 M 238.85 140.57 C 239.12 143.19 238.23 146.50 240.47 148.48 C 242.55 150.19 245.47 149.48 247.95 149.71 C 247.97 146.66 247.97 143.61 247.97 140.56 C 244.93 140.56 241.89 140.56 238.85 140.57 M 68.50 166.70 C 62.77 168.03 57.85 172.45 56.00 178.04 C 52.35 187.79 59.54 199.48 69.83 200.70 C 80.10 202.62 90.40 193.42 89.72 183.03 C 89.74 172.51 78.68 163.99 68.50 166.70 M 209.57 166.70 C 203.59 168.09 198.52 172.86 196.87 178.79 C 193.63 188.74 201.45 200.18 211.87 200.80 C 221.91 202.12 231.53 192.98 230.81 182.91 C 230.75 172.42 219.71 164.00 209.57 166.70 Z" />
<path fill="#cba35d" opacity="1.00" d=" M 133.24 87.20 C 134.89 85.11 138.35 84.94 139.83 87.31 C 141.43 89.34 140.04 91.88 138.39 93.34 C 126.02 105.67 113.73 118.07 101.34 130.37 C 99.85 132.17 96.96 132.59 95.30 130.79 C 88.97 124.76 82.94 118.41 76.66 112.31 C 75.35 110.94 73.82 109.70 72.97 107.98 C 71.85 105.44 74.27 102.27 77.01 102.69 C 78.65 102.75 79.77 104.14 80.91 105.14 C 86.62 110.89 92.34 116.62 98.06 122.34 C 109.80 110.64 121.48 98.88 133.24 87.20 Z" />
<path fill="#cba35d" opacity="1.00" d=" M 11.28 141.36 C 27.52 140.71 43.83 141.31 60.09 141.07 C 62.48 141.21 65.62 140.52 67.17 142.90 C 68.93 145.27 67.03 149.10 64.04 149.03 C 48.03 149.27 32.00 149.02 15.98 149.15 C 13.80 149.02 11.06 149.55 9.49 147.63 C 7.72 145.64 8.72 142.08 11.28 141.36 Z" />
<path fill="#cba35d" opacity="1.00" d=" M 105.36 158.45 C 106.90 158.10 108.49 158.19 110.05 158.16 C 128.36 158.22 146.68 158.17 164.99 158.18 C 166.79 158.14 168.94 158.39 169.89 160.17 C 171.68 162.81 169.16 166.57 166.06 166.17 C 147.05 166.30 128.05 166.16 109.04 166.24 C 107.15 166.16 104.76 166.43 103.51 164.65 C 101.79 162.66 102.83 159.16 105.36 158.45 Z" />
<path fill="#cba35d" opacity="1.00" d=" M 68.43 176.42 C 73.67 173.22 81.12 177.76 80.60 183.91 C 80.67 190.16 72.61 194.11 67.71 190.27 C 62.81 187.16 63.27 179.03 68.43 176.42 Z" />
<path fill="#cba35d" opacity="1.00" d=" M 209.39 176.50 C 214.63 173.15 222.23 177.69 221.69 183.91 C 221.77 190.14 213.75 194.10 208.85 190.30 C 203.95 187.24 204.32 179.18 209.39 176.50 Z" />
</g>
</svg>
