<?xml version="1.0" encoding="UTF-8" ?>
<!DOCTYPE svg PUBLIC "-//W3C//DTD SVG 1.1//EN" "http://www.w3.org/Graphics/SVG/1.1/DTD/svg11.dtd">
<svg width="512pt" height="512pt" viewBox="0 0 512 512" version="1.1" xmlns="http://www.w3.org/2000/svg">
<g id="#ccccccff">
<path fill="#cccccc" opacity="1.00" d=" M 0.00 0.00 L 84.42 0.00 C 92.21 17.02 99.80 34.14 107.54 51.19 C 233.37 51.18 359.20 51.18 485.04 51.19 C 491.94 51.09 499.19 52.88 504.31 57.74 C 509.50 62.45 511.79 69.54 512.00 76.40 L 512.00 79.79 C 511.71 82.43 510.82 85.01 509.05 87.02 C 505.98 90.51 504.07 94.76 501.80 98.76 C 472.56 151.52 443.38 204.31 414.11 257.05 C 408.21 268.32 397.36 276.79 385.01 279.82 C 377.83 281.73 370.34 281.62 362.97 281.60 C 302.57 281.59 242.16 281.59 181.75 281.60 C 174.25 295.85 166.62 310.04 159.19 324.33 C 157.23 328.22 160.51 333.42 164.99 332.81 C 263.60 332.83 362.20 332.81 460.81 332.82 C 460.82 349.88 460.81 366.94 460.82 384.00 C 358.17 383.98 255.53 384.05 152.89 383.96 C 129.55 383.99 108.07 365.84 103.48 343.09 C 101.50 333.94 102.63 324.42 105.22 315.52 C 106.29 311.96 106.86 308.18 108.80 304.96 C 120.36 285.25 131.85 265.49 143.37 245.75 C 112.64 180.89 81.93 116.02 51.17 51.18 C 34.11 51.20 17.06 51.18 0.00 51.19 L 0.00 0.00 Z" />
<path fill="#cccccc" opacity="1.00" d=" M 123.02 420.01 C 133.83 411.70 148.02 408.03 161.49 410.26 C 183.92 413.58 202.65 433.39 204.53 456.01 C 206.23 471.88 199.53 488.11 187.71 498.68 C 178.69 506.81 166.82 511.80 154.62 512.00 L 151.80 512.00 C 133.83 511.37 116.67 500.44 108.47 484.47 C 104.06 476.79 102.19 467.81 102.48 459.00 C 102.86 443.76 110.89 429.11 123.02 420.01 Z" />
<path fill="#cccccc" opacity="1.00" d=" M 385.70 415.78 C 397.68 408.90 412.64 407.96 425.68 412.23 C 437.76 416.52 448.45 425.14 454.43 436.57 C 461.08 447.95 462.37 462.08 458.84 474.69 C 452.86 495.69 432.59 511.76 410.63 512.00 L 407.79 512.00 C 386.44 511.37 366.85 495.91 360.64 475.60 C 356.76 462.81 357.95 448.33 364.70 436.70 C 369.37 427.83 376.82 420.43 385.70 415.78 Z" />
</g>
</svg>
