<?xml version="1.0" encoding="UTF-8" ?>
<!DOCTYPE svg PUBLIC "-//W3C//DTD SVG 1.1//EN" "http://www.w3.org/Graphics/SVG/1.1/DTD/svg11.dtd">
<svg width="256pt" height="256pt" viewBox="0 0 256 256" version="1.1" xmlns="http://www.w3.org/2000/svg">
<g id="#cba35dff">
<path fill="#cba35d" opacity="1.00" d=" M 37.48 0.00 L 146.43 0.00 C 156.06 0.25 164.48 8.68 164.54 18.34 C 164.68 54.24 164.54 90.14 164.61 126.04 C 164.62 128.01 164.55 130.43 162.62 131.54 C 159.98 133.46 155.89 131.19 156.12 127.94 C 155.97 96.68 156.11 65.40 156.06 34.13 C 113.39 34.12 70.73 34.12 28.06 34.13 C 28.06 88.18 28.06 142.23 28.06 196.28 C 57.72 196.30 87.37 196.24 117.03 196.31 C 120.00 195.88 122.77 198.94 121.67 201.84 C 121.04 204.30 118.27 204.98 116.05 204.82 C 86.72 204.81 57.39 204.81 28.07 204.82 C 28.08 215.25 28.02 225.68 28.08 236.11 C 28.06 239.71 29.44 243.51 32.55 245.54 C 34.97 247.33 38.12 247.45 41.01 247.49 C 64.67 247.44 88.34 247.49 112.00 247.46 C 114.05 247.37 116.52 247.93 117.28 250.11 C 118.50 252.67 116.50 255.49 113.91 256.00 L 37.57 256.00 C 27.71 255.70 19.24 246.81 19.56 236.92 C 19.48 165.96 19.57 94.99 19.52 24.03 C 19.50 19.50 19.32 14.71 21.49 10.58 C 24.37 4.45 30.77 0.39 37.48 0.00 M 30.43 12.44 C 27.41 16.13 28.11 21.18 28.09 25.61 C 70.72 25.59 113.36 25.58 155.99 25.61 C 156.04 21.19 156.72 16.11 153.67 12.44 C 151.42 9.43 147.52 8.43 143.92 8.52 C 109.27 8.54 74.63 8.53 39.98 8.53 C 36.45 8.46 32.62 9.47 30.43 12.44 Z" />
<path fill="#cba35d" opacity="1.00" d=" M 73.12 13.23 C 79.65 12.39 86.37 12.85 92.96 12.97 C 97.26 13.59 97.27 20.52 92.97 21.17 C 86.67 21.46 80.31 21.47 74.01 21.16 C 70.23 20.49 69.67 14.80 73.12 13.23 Z" />
<path fill="#cba35d" opacity="1.00" d=" M 103.09 13.19 C 106.28 12.73 110.86 11.79 112.88 15.08 C 114.43 17.82 112.07 21.51 108.95 21.31 C 106.47 21.32 103.27 21.93 101.55 19.67 C 99.78 17.61 100.71 14.30 103.09 13.19 Z" />
<path fill="#cba35d" opacity="1.00" d=" M 176.77 139.78 C 177.62 137.76 179.83 136.24 182.05 136.93 C 184.14 137.24 185.02 139.39 185.93 141.02 C 190.42 149.94 195.08 158.77 199.53 167.71 C 210.63 169.48 221.82 170.73 232.91 172.54 C 236.66 173.10 237.51 178.31 234.49 180.39 C 226.75 187.70 218.97 194.95 211.22 202.24 C 213.04 212.84 215.11 223.39 216.81 234.00 C 217.47 237.42 213.34 240.07 210.44 238.31 C 200.61 233.42 190.84 228.38 181.03 223.44 C 171.36 228.32 161.71 233.26 152.03 238.12 C 150.27 239.08 147.87 239.20 146.43 237.61 C 144.83 236.22 145.20 233.90 145.51 232.05 C 147.30 222.12 149.06 212.18 150.81 202.23 C 142.93 194.80 134.96 187.45 127.16 179.95 C 124.45 177.82 125.66 173.09 129.06 172.56 C 140.16 170.73 151.36 169.47 162.48 167.72 C 167.19 158.38 171.99 149.08 176.77 139.78 M 180.98 150.24 C 177.26 157.48 173.54 164.72 169.85 171.98 C 168.98 173.64 167.93 175.59 165.86 175.85 C 157.01 177.27 148.09 178.36 139.22 179.65 C 145.07 185.17 150.92 190.69 156.79 196.17 C 158.12 197.50 159.91 198.94 159.56 201.07 C 158.28 209.74 156.51 218.34 155.06 226.99 C 162.56 223.21 170.06 219.42 177.55 215.62 C 179.18 214.79 181.15 213.87 182.93 214.92 C 190.99 218.80 198.91 223.01 206.94 227.00 C 205.52 218.95 204.08 210.90 202.65 202.86 C 202.46 201.36 202.10 199.56 203.21 198.33 C 209.17 191.73 216.60 186.45 222.20 179.58 C 213.53 178.30 204.83 177.25 196.18 175.86 C 194.36 175.64 193.24 174.10 192.48 172.58 C 188.63 165.14 184.89 157.65 180.98 150.24 Z" />
<path fill="#cba35d" opacity="1.00" d=" M 87.47 209.74 C 97.02 206.73 107.92 213.99 108.92 223.91 C 110.46 233.36 102.54 242.87 92.98 243.11 C 84.29 243.80 75.94 236.74 75.17 228.07 C 74.05 220.00 79.64 211.81 87.47 209.74 M 88.39 218.53 C 82.51 221.04 82.03 230.19 87.62 233.30 C 93.25 237.21 101.69 231.74 100.40 225.01 C 99.91 219.49 93.28 215.96 88.39 218.53 Z" />
</g>
</svg>
