<?xml version="1.0" encoding="UTF-8" ?>
<!DOCTYPE svg PUBLIC "-//W3C//DTD SVG 1.1//EN" "http://www.w3.org/Graphics/SVG/1.1/DTD/svg11.dtd">
<svg width="256pt" height="256pt" viewBox="0 0 256 256" version="1.1" xmlns="http://www.w3.org/2000/svg">
<g id="#cba35dff">
<path fill="#cba35d" opacity="1.00" d=" M 109.87 48.21 C 125.35 45.29 141.45 46.33 156.59 50.57 C 178.09 56.52 197.52 68.30 214.77 82.22 C 228.82 94.11 242.01 107.09 253.32 121.63 C 254.62 123.33 255.63 125.27 256.00 127.39 L 256.00 128.53 C 255.64 130.66 254.67 132.64 253.35 134.34 C 242.01 148.91 228.79 161.92 214.71 173.82 C 197.66 187.56 178.50 199.25 157.29 205.23 C 138.51 210.75 118.22 210.82 99.41 205.43 C 76.97 199.20 56.78 186.69 38.98 171.91 C 27.62 162.02 16.73 151.56 7.16 139.90 C 4.42 136.41 0.83 133.17 0.00 128.60 L 0.00 127.49 C 0.53 123.87 3.06 121.08 5.28 118.35 C 20.21 100.29 37.33 83.86 56.78 70.73 C 72.86 60.04 90.74 51.53 109.87 48.21 M 105.57 66.38 C 81.81 72.58 61.10 86.89 43.05 103.11 C 34.54 110.85 26.56 119.16 19.19 128.00 C 29.37 140.04 40.48 151.38 52.89 161.13 C 68.70 174.24 86.93 184.96 106.97 189.98 C 122.44 193.98 138.93 193.30 154.17 188.59 C 172.45 182.97 189.13 172.88 203.75 160.68 C 215.91 151.02 226.82 139.86 236.81 128.00 C 229.43 119.19 221.46 110.88 212.95 103.16 C 195.27 87.28 175.11 73.22 151.96 66.80 C 136.91 62.43 120.69 62.25 105.57 66.38 Z" />
<path fill="#cba35d" opacity="1.00" d=" M 125.36 77.48 C 138.74 76.75 152.26 81.78 162.10 90.82 C 173.23 100.97 179.52 116.27 178.48 131.33 C 177.18 151.95 162.10 171.00 142.07 176.42 C 120.15 183.62 94.40 172.46 83.77 152.20 C 75.47 137.70 75.33 119.02 83.44 104.41 C 91.40 88.89 108.00 78.43 125.36 77.48 M 125.31 94.47 C 119.31 94.94 113.46 97.06 108.55 100.52 C 95.21 109.60 90.43 128.75 97.90 143.04 C 104.73 157.51 122.74 165.14 137.92 160.14 C 153.42 155.73 163.97 138.99 161.27 123.10 C 159.18 106.06 142.39 92.67 125.31 94.47 Z" />
</g>
</svg>
