<?xml version="1.0" encoding="UTF-8" ?>
<!DOCTYPE svg PUBLIC "-//W3C//DTD SVG 1.1//EN" "http://www.w3.org/Graphics/SVG/1.1/DTD/svg11.dtd">
<svg width="64pt" height="64pt" viewBox="0 0 64 64" version="1.1" xmlns="http://www.w3.org/2000/svg">
<g id="#ffffffff">
<path fill="#ffffff" opacity="1.00" d=" M 21.04 15.80 C 23.29 13.11 26.94 14.00 30.01 13.85 C 32.17 14.01 34.58 13.41 36.53 14.62 C 38.93 20.00 35.14 26.83 38.94 31.74 C 43.46 28.43 45.90 23.12 48.12 18.14 C 48.75 16.89 49.26 15.02 51.04 15.20 C 55.34 15.22 59.81 14.54 63.99 15.86 C 63.03 23.11 56.46 27.62 53.53 33.96 C 55.39 39.50 62.64 41.99 63.87 47.96 C 64.22 50.20 61.49 50.09 60.04 50.08 C 56.55 49.99 52.95 50.41 49.54 49.45 C 45.62 47.56 43.91 42.85 39.70 41.40 C 37.48 43.55 37.55 46.78 36.75 49.57 C 30.73 50.59 24.06 49.71 19.19 45.78 C 12.99 41.49 9.51 34.59 5.60 28.38 C 3.69 24.17 0.85 20.25 0.06 15.64 C 3.66 14.90 7.36 15.08 11.00 15.23 C 12.60 15.08 13.36 16.58 13.96 17.77 C 16.37 22.83 18.68 28.36 23.28 31.83 C 24.20 30.75 25.06 29.55 25.03 28.05 C 25.31 24.49 25.55 20.71 24.05 17.37 C 23.30 16.98 21.79 16.19 21.04 15.80 Z" />
</g>
</svg>
