<?xml version="1.0" encoding="UTF-8" ?>
<!DOCTYPE svg PUBLIC "-//W3C//DTD SVG 1.1//EN" "http://www.w3.org/Graphics/SVG/1.1/DTD/svg11.dtd">
<svg width="256pt" height="256pt" viewBox="0 0 256 256" version="1.1" xmlns="http://www.w3.org/2000/svg">
<g id="#cba35dff">
<path fill="#cba35d" opacity="1.00" d=" M 120.35 22.54 C 124.98 20.83 130.56 24.03 131.26 28.96 C 142.05 80.49 152.73 132.04 163.50 183.58 C 169.40 152.07 175.29 120.55 181.18 89.04 C 181.61 85.88 183.48 82.76 186.59 81.65 C 190.28 80.13 194.68 81.88 196.68 85.24 C 205.61 98.97 214.46 112.76 223.38 126.50 C 231.54 126.58 239.72 126.36 247.88 126.59 C 252.24 126.70 255.79 130.53 256.00 134.81 L 256.00 134.90 C 255.84 139.15 252.33 143.01 247.98 143.03 C 238.63 143.24 229.27 143.08 219.92 143.12 C 216.76 143.31 213.62 141.77 211.98 139.04 C 205.98 129.83 200.06 120.58 194.07 111.36 C 186.87 149.67 179.72 187.99 172.53 226.31 C 172.13 228.31 171.48 230.43 169.85 231.79 C 166.39 235.05 160.17 234.47 157.44 230.55 C 155.82 228.09 155.58 225.05 154.93 222.25 C 144.49 172.12 134.05 121.99 123.59 71.86 C 116.86 106.83 110.13 141.81 103.40 176.78 C 102.96 179.14 102.21 181.65 100.22 183.18 C 97.37 185.69 92.75 185.68 89.86 183.25 C 87.62 181.48 86.92 178.57 85.97 176.03 C 76.92 150.34 67.87 124.66 58.77 99.00 C 54.06 111.83 49.48 124.72 44.71 137.54 C 43.61 140.71 40.48 142.97 37.12 142.94 C 27.70 143.06 18.28 143.01 8.87 142.97 C 4.30 143.21 0.22 139.46 0.00 134.90 L 0.00 134.78 C 0.13 130.51 3.66 126.59 8.04 126.59 C 15.71 126.37 23.39 126.56 31.06 126.52 C 37.97 107.92 44.43 89.14 51.51 70.61 C 54.04 64.44 63.81 64.63 66.12 70.88 C 75.10 95.62 83.66 120.52 92.50 145.32 C 99.97 106.75 107.40 68.16 114.86 29.59 C 115.29 26.47 117.24 23.50 120.35 22.54 Z" />
</g>
</svg>
