<?xml version="1.0" encoding="UTF-8" ?>
<!DOCTYPE svg PUBLIC "-//W3C//DTD SVG 1.1//EN" "http://www.w3.org/Graphics/SVG/1.1/DTD/svg11.dtd">
<svg width="512pt" height="512pt" viewBox="0 0 512 512" version="1.1" xmlns="http://www.w3.org/2000/svg">
<g id="#ffffffff">
<path fill="#ffffff" opacity="1.00" d=" M 81.15 82.25 C 119.75 80.67 158.37 79.65 197.00 80.00 C 273.64 80.36 350.33 78.70 426.92 82.32 C 439.83 83.19 453.23 83.55 465.33 88.66 C 481.30 95.29 490.30 111.14 496.76 126.27 C 507.77 154.33 509.83 184.75 512.00 214.50 L 512.00 297.50 C 509.83 327.25 507.77 357.67 496.76 385.72 C 490.44 400.93 481.08 416.51 465.32 423.31 C 454.94 427.47 443.63 428.60 432.57 429.42 C 354.78 433.31 276.86 431.65 199.00 432.00 C 159.67 432.39 120.35 431.05 81.05 429.80 C 66.09 428.32 49.66 427.36 37.34 417.62 C 23.37 407.06 16.22 390.22 11.22 373.96 C 3.80 349.14 2.56 323.08 0.00 297.46 L 0.00 214.54 C 3.02 184.38 4.18 153.24 15.81 124.81 C 21.20 112.29 28.29 99.63 40.09 92.12 C 52.24 84.25 67.18 83.53 81.15 82.25 M 192.02 160.94 C 191.99 224.31 191.99 287.69 192.02 351.06 C 243.55 320.73 294.56 289.49 346.00 258.99 C 347.30 258.23 351.55 256.12 348.45 254.61 C 296.32 223.38 244.35 191.84 192.02 160.94 Z" />
</g>
</svg>
